<svg xmlns="http://www.w3.org/2000/svg" viewBox="0 0 800 596.17"><defs><style>.cls-1{fill:#ebebeb;}.cls-2{fill:#e6e6e6;}.cls-3{fill:#f5f5f5;}.cls-4{fill:#f0f0f0;}.cls-10,.cls-14,.cls-5,.cls-8,.cls-9{fill:#407bff;}.cls-10,.cls-6{opacity:0.2;}.cls-13,.cls-15,.cls-7{fill:#fff;}.cls-14,.cls-7{opacity:0.5;}.cls-8{opacity:0.3;}.cls-9{opacity:0.7;}.cls-11,.cls-16{fill:#263238;}.cls-12,.cls-15,.cls-16{opacity:0.4;}</style></defs><g id="Background_Complete" data-name="Background Complete"><rect class="cls-1" y="523.91" width="800" height="0.4"/><rect class="cls-1" x="167.27" y="534.81" width="53" height="0.4"/><rect class="cls-1" x="273.82" y="549.47" width="65.2" height="0.4"/><rect class="cls-1" x="83.93" y="544.45" width="81.74" height="0.4"/><rect class="cls-1" x="570.82" y="537.5" width="149.02" height="0.4"/><rect class="cls-1" x="546.44" y="537.5" width="10.13" height="0.4"/><rect class="cls-1" x="443.54" y="544.25" width="67.57" height="0.4"/><path class="cls-1" d="M379.22,545.73h-309a9.15,9.15,0,0,1-9.13-9.14V102.3a9.15,9.15,0,0,1,9.13-9.13h309a9.14,9.14,0,0,1,9.13,9.13V536.59A9.14,9.14,0,0,1,379.22,545.73ZM70.26,93.57a8.74,8.74,0,0,0-8.73,8.73V536.59a8.75,8.75,0,0,0,8.73,8.74h309a8.74,8.74,0,0,0,8.73-8.74V102.3a8.74,8.74,0,0,0-8.73-8.73Z" transform="translate(0 -93.17)"/><path class="cls-1" d="M725.3,545.73h-309a9.14,9.14,0,0,1-9.13-9.14V102.3a9.14,9.14,0,0,1,9.13-9.13h309a9.15,9.15,0,0,1,9.13,9.13V536.59A9.15,9.15,0,0,1,725.3,545.73Zm-309-452.16a8.74,8.74,0,0,0-8.73,8.73V536.59a8.74,8.74,0,0,0,8.73,8.74h309a8.75,8.75,0,0,0,8.73-8.74V102.3a8.74,8.74,0,0,0-8.73-8.73Z" transform="translate(0 -93.17)"/><polygon class="cls-2" points="308.4 523.91 282.67 523.91 282.67 137.68 297.07 137.68 308.4 523.91"/><path class="cls-2" d="M294.74,244.18H270.6a13.37,13.37,0,0,1-13.34-13.33h0a13.38,13.38,0,0,1,13.34-13.34h24.14a13.37,13.37,0,0,1,13.33,13.34h0A13.37,13.37,0,0,1,294.74,244.18Z" transform="translate(0 -93.17)"/><ellipse class="cls-3" cx="268.11" cy="137.87" rx="12.83" ry="14.3"/><polygon class="cls-3" points="268.11 137.87 159.68 27.35 223.32 123.65 268.11 137.87"/><polygon class="cls-3" points="268.11 137.87 226.61 287.02 278.19 183.76 268.11 137.87"/><polygon class="cls-3" points="268.11 137.87 418.03 99.22 302.81 106.19 268.11 137.87"/><polygon class="cls-2" points="533.4 523.91 511.73 523.91 511.73 166.31 523.85 166.31 533.4 523.91"/><path class="cls-2" d="M521.89,270.71H501.58a11.26,11.26,0,0,1-11.23-11.23h0a11.26,11.26,0,0,1,11.23-11.22h20.31a11.25,11.25,0,0,1,11.22,11.22h0A11.26,11.26,0,0,1,521.89,270.71Z" transform="translate(0 -93.17)"/><ellipse class="cls-3" cx="499.48" cy="166.47" rx="10.8" ry="12.04"/><polygon class="cls-3" points="499.48 166.47 553.76 48.02 497.19 126.99 499.48 166.47"/><polygon class="cls-3" points="499.48 166.47 369.75 178.69 466.43 188.2 499.48 166.47"/><polygon class="cls-3" points="499.48 166.47 574.92 272.72 534.82 184.23 499.48 166.47"/><path class="cls-2" d="M436.9,550.82s-77.9-38.67,3.81-85,98.59,35.41,98.59,35.41,13.07-75.72,80.61-38.13c52.12,29,41.65,65,34.14,79.89,8-10.95,28.07-28.66,65.54-5.81,50.93,31-7,79.87-7,79.87H405C365.82,555.07,436.9,550.82,436.9,550.82Z" transform="translate(0 -93.17)"/><path class="cls-4" d="M427.13,530.58s96.54-50.49-4.72-110.93-122.19,46.22-122.19,46.22S284,367,200.31,416.09C135.71,454,148.7,500.91,158,520.39c-9.9-14.3-34.78-37.42-81.23-7.59-63.12,40.53,8.67,104.28,8.67,104.28H466.62C515.22,536.12,427.13,530.58,427.13,530.58Z" transform="translate(0 -93.17)"/><path class="cls-2" d="M194.57,242.29c-4.35-8.77-12.79-15-21.46-15a15.74,15.74,0,0,0-12.93,6.46,15.15,15.15,0,0,0-9.47-3.65c-5.92,0-10.26,4.22-11.29,10.18a22.33,22.33,0,0,0-8.71-2.27c-5.9-.27-10.57,2.15-13,6.1a7.94,7.94,0,0,0-3.65-1.14c-3.4-.15-5.6,2.3-4.94,5.47a5.47,5.47,0,0,0,.15.58H205C205.26,245.9,198.8,242.44,194.57,242.29Z" transform="translate(0 -93.17)"/><path class="cls-3" d="M694.46,212.78c-4.35-8.77-12.79-15-21.46-15a15.74,15.74,0,0,0-12.93,6.46,15.15,15.15,0,0,0-9.47-3.65c-5.92,0-10.26,4.22-11.29,10.18a22.33,22.33,0,0,0-8.71-2.27c-5.91-.27-10.57,2.15-13,6.1a7.94,7.94,0,0,0-3.65-1.14c-3.4-.15-5.6,2.3-4.94,5.46a5.66,5.66,0,0,0,.15.59h95.75C705.15,216.39,698.69,212.93,694.46,212.78Z" transform="translate(0 -93.17)"/><path class="cls-3" d="M459.46,335.59a11.07,11.07,0,0,0-1.38-.08c-4.26-5.18-9.59-8.49-14.6-8.49a9.69,9.69,0,0,0-8.39,4.65c-7.76-10.05-17.79-16.58-27.17-16.58-7.57,0-13.32,4.25-16.54,11.18-4.38-3.95-9.3-6.31-14-6.31-8.23,0-13.34,7.3-13.43,17.6,0,0,0,0,0,0a29.49,29.49,0,0,0-12.62-3.94c-8.26-.46-14.21,3.73-16.67,10.57a10.67,10.67,0,0,0-5.34-2c-4.51-.25-7,3.52-5.9,8.56H480.06C476.84,343.14,467.88,336.45,459.46,335.59Z" transform="translate(0 -93.17)"/><path class="cls-2" d="M503.41,126.5a5.53,5.53,0,0,0-.69,0c-2.13-2.59-4.79-4.24-7.3-4.24a4.82,4.82,0,0,0-4.19,2.32c-3.88-5-8.9-8.29-13.59-8.29-3.78,0-6.66,2.13-8.27,5.59a10.85,10.85,0,0,0-7-3.15c-4.12,0-6.68,3.65-6.72,8.8,0,0,0,0,0,0a14.59,14.59,0,0,0-6.31-2A7.88,7.88,0,0,0,441,130.8a5.26,5.26,0,0,0-2.66-1c-2.26-.13-3.51,1.76-2.95,4.28h78.32A13.59,13.59,0,0,0,503.41,126.5Z" transform="translate(0 -93.17)"/></g><g id="Shadow"><ellipse id="_Path_" data-name="&lt;Path&gt;" class="cls-3" cx="400" cy="578.06" rx="310.22" ry="18.12"/></g><g id="Electric_Car" data-name="Electric Car"><path class="cls-5" d="M430.37,543.44H381.09c-21.13,0-38.26,27.73-38.26,61.93s17.13,61.94,38.26,61.94h49.28c21.14,0,38.27-27.73,38.27-61.94S451.51,543.44,430.37,543.44Z" transform="translate(0 -93.17)"/><path class="cls-6" d="M430.37,543.44H381.09c-21.13,0-38.26,27.73-38.26,61.93s17.13,61.94,38.26,61.94h49.28c21.14,0,38.27-27.73,38.27-61.94S451.51,543.44,430.37,543.44Z" transform="translate(0 -93.17)"/><path class="cls-5" d="M207.91,543.44H158.63c-21.13,0-38.27,27.73-38.27,61.93s17.14,61.94,38.27,61.94h49.28c21.13,0,38.27-27.73,38.27-61.94S229,543.44,207.91,543.44Z" transform="translate(0 -93.17)"/><path class="cls-6" d="M207.91,543.44H158.63c-21.13,0-38.27,27.73-38.27,61.93s17.14,61.94,38.27,61.94h49.28c21.13,0,38.27-27.73,38.27-61.94S229,543.44,207.91,543.44Z" transform="translate(0 -93.17)"/><path class="cls-5" d="M678.26,496.42l11.23,9.64a18.74,18.74,0,0,1,6,18.54l-2.56,10.78Z" transform="translate(0 -93.17)"/><path class="cls-5" d="M698.63,559.28h0a187.22,187.22,0,0,0-16.35-61l-3.83-8.3H585.14l48.36,139.2h0a110.91,110.91,0,0,0,46-24l1.12-1A53.1,53.1,0,0,0,698.63,559.28Z" transform="translate(0 -93.17)"/><path class="cls-7" d="M698.63,559.28h0a187.22,187.22,0,0,0-16.35-61l-3.83-8.3H585.14l48.36,139.2h0a110.91,110.91,0,0,0,46-24l1.12-1A53.1,53.1,0,0,0,698.63,559.28Z" transform="translate(0 -93.17)"/><path class="cls-5" d="M574.79,667.31c-21.14,0-38.27-27.73-38.27-61.94s17.13-61.93,38.27-61.93h49.09V667.31Z" transform="translate(0 -93.17)"/><ellipse class="cls-5" cx="624.06" cy="512.2" rx="38.27" ry="61.93"/><ellipse class="cls-6" cx="624.06" cy="512.2" rx="26.85" ry="39.17"/><path class="cls-5" d="M295.42,629.13l-92-147.69s72.8-73.62,231.85-73.62c137.69,0,220.15,45.47,243.2,82.11l-54.57,53.51c-52.84,0-52.51,56-59.76,79.59a8.62,8.62,0,0,1-8.33,6.1H295.42" transform="translate(0 -93.17)"/><path class="cls-7" d="M295.42,629.13l-92-147.69s72.8-73.62,231.85-73.62c137.69,0,220.15,45.47,243.2,82.11l-54.57,53.51c-52.84,0-52.51,56-59.76,79.59a8.62,8.62,0,0,1-8.33,6.1H295.42" transform="translate(0 -93.17)"/><path class="cls-5" d="M352.32,667.31c-21.13,0-38.26-27.73-38.26-61.94s17.13-61.93,38.26-61.93h49.1V667.31Z" transform="translate(0 -93.17)"/><ellipse class="cls-5" cx="401.6" cy="512.2" rx="38.27" ry="61.93"/><ellipse class="cls-6" cx="401.6" cy="512.2" rx="26.85" ry="39.17"/><path class="cls-5" d="M334.23,616.94c4.68-27.67,32.28-73.5,67.19-73.5l33.83-62H203.4c-14.79,0-83.91,25-109.08,50.14C76.7,549.2,74.87,566.92,72.8,612.05c-.42,9.21,8,17.12,18.23,17.13,85.53,0,189,.33,226.73.45C326.08,629.65,333,624.34,334.23,616.94Z" transform="translate(0 -93.17)"/><path class="cls-7" d="M334.23,616.94c4.68-27.67,32.28-73.5,67.19-73.5l33.83-62H203.4c-14.79,0-83.91,25-109.08,50.14C76.7,549.2,74.87,566.92,72.8,612.05c-.42,9.21,8,17.12,18.23,17.13,85.53,0,189,.33,226.73.45C326.08,629.65,333,624.34,334.23,616.94Z" transform="translate(0 -93.17)"/><path class="cls-8" d="M435.25,407.83c-158.07,0-230.19,72.47-231.83,73.59l0,0H363.34S432.1,422,477.67,409.35Q457.44,407.85,435.25,407.83Z" transform="translate(0 -93.17)"/><path class="cls-9" d="M237.47,544.69c22-8.31,88.19-31.65,106.26-25.58S318,546.84,307,549.72s-18.25-2.88-34.75,5.09S210.9,554.76,237.47,544.69Z" transform="translate(0 -93.17)"/><path class="cls-10" d="M509.21,630a.81.81,0,0,1-.47-.14.83.83,0,0,1-.22-1.17c.32-.49,32.74-49.3,32.74-147.22a.85.85,0,0,1,1.69,0c0,98.49-32.71,147.68-33,148.16A.84.84,0,0,1,509.21,630Z" transform="translate(0 -93.17)"/><path class="cls-10" d="M158,554.4a.62.62,0,0,1-.19,0l-44-10.12a.84.84,0,1,1,.38-1.64L158,552.71l72.59-8.27a.85.85,0,0,1,.19,1.68l-72.73,8.28Z" transform="translate(0 -93.17)"/><path class="cls-10" d="M623.88,544.28a.84.84,0,0,1-.59-1.44c15.39-15.09,23.58-50.33,23.58-70a.85.85,0,1,1,1.69,0c0,19.93-8.37,55.75-24.09,71.16A.82.82,0,0,1,623.88,544.28Z" transform="translate(0 -93.17)"/><path class="cls-5" d="M499.94,498.27h21.93a3.1,3.1,0,0,0,3.09-3.09h0a3.1,3.1,0,0,0-3.09-3.09H499.94a3.11,3.11,0,0,0-3.1,3.09h0A3.11,3.11,0,0,0,499.94,498.27Z" transform="translate(0 -93.17)"/><path class="cls-5" d="M596.17,498.27H618.1a3.11,3.11,0,0,0,3.1-3.09h0a3.11,3.11,0,0,0-3.1-3.09H596.17a3.1,3.1,0,0,0-3.09,3.09h0A3.1,3.1,0,0,0,596.17,498.27Z" transform="translate(0 -93.17)"/><path class="cls-9" d="M112.39,545.52c-4.53-2.75-11.93-7.1-20.31-11.57A55.33,55.33,0,0,0,81.23,550.6a21.45,21.45,0,0,1,9,4.47C101,563.3,129.57,556,112.39,545.52Z" transform="translate(0 -93.17)"/><path class="cls-8" d="M391.61,481.44h223.5a66.42,66.42,0,0,0,32.61-8.56h0s-36.17-32.86-109-47c-29.93-5.83-58.29-8.09-67-7.52C450.93,429.3,419.07,452.35,391.61,481.44Z" transform="translate(0 -93.17)"/><path class="cls-5" d="M257.56,618.88H98.66a4.43,4.43,0,0,1-3.33-7.37l4.11-4.64a4.44,4.44,0,0,1,3.32-1.5H253.45a4.44,4.44,0,0,1,3.32,1.5l4.11,4.64A4.43,4.43,0,0,1,257.56,618.88Z" transform="translate(0 -93.17)"/><path class="cls-5" d="M674.41,545l-10,1.93V519.75l10,1.94c1.35.26,2.37,2.09,2.37,4.26v14.74C676.78,542.86,675.76,544.69,674.41,545Z" transform="translate(0 -93.17)"/></g><g id="Charger"><path class="cls-5" d="M505.75,679.56c-8,0-12.34-2-12.34-5.56,0-3.06,3.41-5.31,10.43-6.89,6.81-1.53,16.71-2.33,28.61-2.33H660.84c7.79,0,13.66-2.28,17.93-6.95,11.56-12.66,9-41.17,7.08-62-.64-7.07-1.24-13.75-1.24-19a135.61,135.61,0,0,1,1.92-20.67c1.2-8.08,2.15-14.46-.44-17.45-1.69-2-5.23-2.92-10.82-2.92v-5.06c7.25,0,11.91,1.48,14.66,4.67,4.09,4.76,3,12.15,1.6,21.5a132.12,132.12,0,0,0-1.86,19.93c0,5,.59,11.55,1.22,18.5,2.09,23,4.69,51.54-8.38,65.85-5.21,5.7-12.5,8.6-21.67,8.6H532.45c-20.72,0-29.93,2.43-33,3.95a22.44,22.44,0,0,0,6.29.71Z" transform="translate(0 -93.17)"/><path class="cls-5" d="M675.27,524.53V542.1a8.79,8.79,0,0,0,0-17.57Z" transform="translate(0 -93.17)"/><rect class="cls-11" x="532.45" y="177.5" width="67.24" height="404.18"/><rect class="cls-11" x="538.2" y="172.52" width="79.93" height="4.98"/><rect class="cls-12" x="599.69" y="172.52" width="18.44" height="4.98"/><polygon class="cls-13" points="577.15 213.31 565.84 213.31 575.73 197.65 563.3 197.65 555 219.78 565.32 219.78 559.03 239.77 577.15 213.31"/><circle class="cls-14" cx="566.07" cy="526.07" r="14.13" transform="translate(-206.19 461.19) rotate(-45)"/><path class="cls-5" d="M505.75,679.56a2.53,2.53,0,0,1,0-5.06c8.13,0,13.75-2,17.18-6.16,7.87-9.51,4-30-.2-51.69-2.75-14.4-5.6-29.29-5.6-43.13,0-32.23,17.38-50,48.94-50a2.53,2.53,0,0,1,0,5.06c-20,0-43.88,7.79-43.88,44.92,0,13.36,2.8,28,5.51,42.18,4.38,22.9,8.51,44.52-.87,55.87C522.38,677,515.49,679.56,505.75,679.56Z" transform="translate(0 -93.17)"/><rect class="cls-14" x="540.84" y="305.68" width="50.46" height="101.98"/><polygon class="cls-14" points="540.84 305.69 540.84 407.67 558.92 319.88 540.84 305.69"/><polygon class="cls-5" points="581.72 340.08 582.75 335.1 568.98 335.1 567.96 340.08 562.62 340.08 552.86 387.47 577.42 387.47 587.18 340.08 581.72 340.08"/><path class="cls-15" d="M580.45,450.07l-5,24.41a3.72,3.72,0,0,1-3.63,3H559.53a2.24,2.24,0,0,1-2.19-2.7l5-24.41a3.71,3.71,0,0,1,3.63-3h12.26A2.24,2.24,0,0,1,580.45,450.07Z" transform="translate(0 -93.17)"/><polygon class="cls-16" points="540.84 305.69 591.3 305.69 591.3 319.88 558.92 319.88 540.84 305.69"/><rect class="cls-11" x="599.69" y="270.67" width="24.19" height="404.18" transform="translate(1223.57 852.35) rotate(180)"/><rect class="cls-12" x="599.69" y="270.67" width="24.19" height="404.18" transform="translate(1223.57 852.35) rotate(180)"/></g></svg>