<svg id="e964fae6-99d5-4ba3-9654-9b5776c78265" xmlns="http://www.w3.org/2000/svg" viewBox="0 0 798 557.15"><defs><style>.cls-1{fill:#f2f2f2;}.cls-2{fill:#3f3d56;}.cls-3{fill:#407bff;}.cls-4{fill:#a0616a;}.cls-5{fill:#2f2e41;}.cls-6{fill:#d0cde1;}.cls-7,.cls-8,.cls-9{isolation:isolate;}.cls-7{opacity:0.15;}.cls-8{fill:#fff;}.cls-8,.cls-9{opacity:0.3;}</style></defs><polyline class="cls-1" points="384.16 120.3 384.16 222.96 579.94 222.96"/><polygon class="cls-2" points="608.59 223.76 383.36 223.76 383.36 20.82 384.95 20.82 384.95 222.17 608.59 222.17 608.59 223.76"/><path class="cls-2" d="M387.61,345.42l-1.42-.71a65.76,65.76,0,0,1,52-35.4c3.76-.33,7.71-.36,11.52-.39,10.54-.09,21.43-.18,29.38-6.62,5.88-4.77,8.72-11.79,11.73-19.21a95.14,95.14,0,0,1,5.16-11.3A46.3,46.3,0,0,1,532.71,249q.87-.06,1.77-.06a44.31,44.31,0,0,1,4.22-4.85c7.71-7.63,17.59-12.63,27.14-17.46l2.26-1.15c10.11-5.14,20.57-10.91,27.72-19.84a43.9,43.9,0,0,0,7-41l1.5-.52a45.49,45.49,0,0,1-7.28,42.51c-7.34,9.18-18,15-28.24,20.27L566.56,228c-9.44,4.78-19.21,9.72-26.74,17.17a42.38,42.38,0,0,0-3.35,3.74c9,.36,19.46,3.83,25.34,12.82a22.35,22.35,0,0,1,2.61,17.84,17.5,17.5,0,0,1-8.9,11.42c-4.56,2.27-9.95,2.2-15.17-.19a23,23,0,0,1-12.64-14.66c-2.4-9.3.76-18.51,5.61-25.63l-.52,0a44.64,44.64,0,0,0-35.41,22,92.66,92.66,0,0,0-5.07,11.11c-3,7.28-6,14.82-12.21,19.84-8.38,6.8-19.56,6.89-30.37,7-3.78,0-7.69.06-11.39.39A64.15,64.15,0,0,0,387.61,345.42Zm147.68-94.91c-5,6.92-8.42,16.07-6,25.27A21.42,21.42,0,0,0,541,289.4c4.78,2.18,9.68,2.25,13.8.2a15.9,15.9,0,0,0,8.07-10.41,21,21,0,0,0-2.41-16.55C555.62,255.22,545.91,250.6,535.29,250.51Z" transform="translate(-1 -121.44)"/><circle class="cls-3" cx="493.98" cy="153.72" r="14.33"/><path class="cls-2" d="M345.58,535.36H1V371.46H345.58Zm-343-1.59H344V373.05H2.59Z" transform="translate(-1 -121.44)"/><rect class="cls-2" x="256.82" y="537.32" width="529.24" height="1.59"/><path class="cls-4" d="M663.43,306.46l-6.55,32.72s-8.41,18.7-4.67,31.79l2.8,5.61,17.77-15.89,6.54-43.95Z" transform="translate(-1 -121.44)"/><polygon class="cls-4" points="625.96 487.96 615.68 527.23 627.83 532.84 639.05 523.49 645.6 493.57 625.96 487.96"/><polygon class="cls-4" points="763.87 472.53 769.01 529.1 795.2 529.1 782.57 466.92 763.87 472.53"/><path class="cls-5" d="M724.2,385.93l5.3-25.9-61.4-14.3L655,366.3s-22.44,35.53-28,144-7.48,107.53-7.48,107.53l45.82,4.67L688.67,471l58,138.38,44-12.15L735.42,430.81S739.16,406.5,724.2,385.93Z" transform="translate(-1 -121.44)"/><path class="cls-5" d="M629.77,640.25l-6.55,6.54-3.74-3.74,2-13.74-10.45,6.26s-18.7-2.8-16.83,16.83c0,0-2.81,6.55,13.09,14s24.31,12.15,24.31,12.15,15-.93,15-5.61-4.72-36.42-4.72-36.42Z" transform="translate(-1 -121.44)"/><path class="cls-5" d="M782.17,640.25l-6.54,6.54-3.74-3.74L768,629.31l-4.49,6.26s-18.7-2.8-16.83,16.83c0,0-2.8,6.55,13.09,14S784,678.58,784,678.58s15-.93,15-5.61-4.71-36.42-4.71-36.42Z" transform="translate(-1 -121.44)"/><circle class="cls-4" cx="707.31" cy="103.68" r="27.11"/><polygon class="cls-4" points="698.89 124.25 700.76 156.04 736.29 156.04 726.01 113.03 698.89 124.25"/><path class="cls-6" d="M679.32,264.38l29-1.87,30.85,1.87s26.18,14,12.16,52.36S727,367.23,727,367.23l-29.92-13.09h-9.35s-2.81-2.8-3.74-2.8-18.7,2.8-18.7,2.8-4.68-19.63,1.87-21.5,10.28-12.16,10.28-12.16Z" transform="translate(-1 -121.44)"/><polygon class="cls-6" points="683.93 145.75 678.32 142.95 658.69 188.76 680.19 202.79 683.93 145.75"/><path class="cls-5" d="M669.5,222.78s-13.08-33.66,12.79-36.88c0,0,32.63-20.05,53.6,13.5l16.55,40.85-5.53-1.1-.7,5.51L739.15,249l-5.3-5.48.87,8.39-60.78,25.82s22.92-25.38,14.08-55.3l-3.59,7.33Z" transform="translate(-1 -121.44)"/><path class="cls-3" d="M291.49,639.19c-3.4,12.57-15.05,20.35-15.05,20.35s-6.13-12.59-2.73-25.16,15-20.35,15-20.35S294.89,626.62,291.49,639.19Z" transform="translate(-1 -121.44)"/><path class="cls-3" d="M260.56,639.19c3.4,12.57,15,20.35,15,20.35s6.14-12.59,2.74-25.16-15-20.35-15-20.35S257.16,626.62,260.56,639.19Z" transform="translate(-1 -121.44)"/><path class="cls-2" d="M265.55,636.49c9.33,9.08,10.47,23,10.47,23s-14-.76-23.31-9.84-10.47-23.05-10.47-23.05S256.23,627.41,265.55,636.49Z" transform="translate(-1 -121.44)"/><path class="cls-2" d="M286.49,636.49c-9.33,9.08-10.47,23-10.47,23s14-.76,23.32-9.84,10.46-23.05,10.46-23.05S295.82,627.41,286.49,636.49Z" transform="translate(-1 -121.44)"/><path class="cls-3" d="M149.69,189a67.45,67.45,0,0,1,49.36-46,67.51,67.51,0,1,0-34.16,111.81A67.45,67.45,0,0,1,149.69,189Z" transform="translate(-1 -121.44)"/><path class="cls-2" d="M244,147.18a67.21,67.21,0,0,0-34.93-1.2,67.5,67.5,0,0,1-34.16,111.81A67.51,67.51,0,1,0,244,147.18Z" transform="translate(-1 -121.44)"/><ellipse class="cls-6" cx="186.27" cy="200.13" rx="58.46" ry="33.75" transform="translate(-60.55 198.36) rotate(-73.01)"/><circle class="cls-3" cx="604.61" cy="47.08" r="14.33"/><circle class="cls-3" cx="565.61" cy="105.97" r="14.33"/><rect class="cls-1" x="6.92" y="287.14" width="261.89" height="115.68"/><rect class="cls-3" x="19.93" y="279.37" width="249.36" height="22.13"/><rect class="cls-2" x="35.78" y="287.44" width="217.67" height="5.98"/><circle class="cls-2" cx="144.31" cy="290.13" r="8.37"/><rect class="cls-3" x="79.13" y="318.84" width="130.36" height="62.19"/><circle class="cls-7" cx="144.31" cy="349.93" r="11.96"/><circle class="cls-8" cx="186.17" cy="349.93" r="11.96"/><circle class="cls-9" cx="102.45" cy="349.93" r="11.96"/></svg>