<?xml version="1.0" encoding="utf-8"?>
<!-- Generator: Adobe Illustrator 25.3.1, SVG Export Plug-In . SVG Version: 6.00 Build 0)  -->
<svg version="1.1" id="图层_1" xmlns="http://www.w3.org/2000/svg" xmlns:xlink="http://www.w3.org/1999/xlink" x="0px" y="0px"
	 viewBox="0 0 4733.9 4733.9" style="enable-background:new 0 0 4733.9 4733.9;" xml:space="preserve">
<style type="text/css">
	.st0{fill:#F0F0F0;}
	.st1{fill:#3B3744;}
	.st2{fill:#FFFFFF;}
	.st3{fill:none;stroke:#1B3C87;stroke-width:3.19;stroke-linecap:round;stroke-linejoin:round;}
	.st4{fill:#B2C3FB;}
	.st5{fill:#D8DFFF;}
	.st6{fill:#46DBC9;}
	.st7{fill:#FB5D64;}
	.st8{fill:#1B3C87;}
	.st9{fill:#ECC953;}
	.st10{fill:none;stroke:#D8DFFF;stroke-width:3.19;stroke-linecap:round;stroke-linejoin:round;}
</style>
<g id="Layer_2">
	<g id="vector">
		<path class="st0" d="M3643.4,396.3c377.4,235.2,702.5,614.7,776.7,1038.1c75.2,423.4-100.3,891.8-332.4,1356.8
			c-232.1,466.1-520.5,931.4-987.8,1251.1c-467.3,320.9-1113.2,497.6-1607.7,299C998.8,4143.8,657,3569.9,469.9,3018
			c-186-552-216.4-1081.9-121.2-1586.9c94.1-503.7,312.5-981.4,676.3-1218.7S1897.8-21.8,2367.1,25.3
			C2835.4,71.3,3266.1,162.2,3643.4,396.3z"/>
		<path class="st1" d="M3863.6,4733.9c-31.1-54.4-447.3-955.8-447.3-1026.8c0-24.2,131.9-764.7,190.3-773.3
			c58.4-8.6,198.6-67.5,243.6-83.6c5.2,60,314.9,1883.7,314.9,1883.7H3863.6z"/>
		<path class="st1" d="M2900.2,4733.9c0-118.2,4.2-1867.5,4.2-1867.5s751.5,28.6,814.9,31.7c0,364.2-524.4,1552.8-524.4,1835.8
			H2900.2z"/>
		<path class="st2" d="M3326.8,1375.2c-22.5-35.4-126.9-210.4-136.1-240.6c-9.2-30.3-73.2-562.2-73.2-562.2l-180.4,9.1
			c0,0-19.6,568.7,0,611.9c19.6,43.1,163.4,321.6,163.4,321.6l111.1,70.7L3326.8,1375.2z"/>
		<path class="st3" d="M2906.4,1082.6c1.2,46,3.6,78.8,7.7,88c19.6,43.1,163.4,321.6,163.4,321.6l111.1,70.7l115.3-210.4
			c-22.5-35.4-126.9-210.4-136.1-240.6s-73.2-562.2-73.2-562.2l-180.4,9.1c0,0-7.4,213.8-8.6,389.1"/>
		<path class="st4" d="M4147.7,81.4l133.9-13c28.6-2.8,54,18.1,56.7,46.7l30.3,311.1c2.8,28.6-18.1,54-46.7,56.7l-133.9,13l0,0
			L4147.7,81.4L4147.7,81.4z"/>
		<polygon class="st5" points="1654.1,324.1 1315.3,566.3 1694.5,738.6 1694.5,738.6 4188,495.7 4147.6,81.2 		"/>
		<path class="st6" d="M3484.8,1329.3c478.8,0,369,1327.7,365.4,1520.9c-74.8,90.5-851,68.6-950,7.2
			C2875.4,2646.2,2966.5,1329.3,3484.8,1329.3z"/>
		<path class="st3" d="M3805.2,1826c62.2,395,24.3,889.1,22.2,1001.2c-42.4,51.3-310.3,66.5-552.5,58.9"/>
		<path class="st3" d="M2891.7,2439.9c47.8-460.9,199.9-1133.5,570.3-1133.5c130.2,0,216.9,98.2,274,245"/>
		<path class="st3" d="M3086.8,2875c-102.4-9.4-182-23.4-209.5-40.5c-3.6-30.3-4.6-83.3-2.6-151.9"/>
		<path class="st3" d="M3549.9,3458.6c-71.4,206.4-146.7,395.4-168.9,461.3c-42.9,126.9-209,705.3-209,791.2"/>
		<path class="st3" d="M3696.4,2870.7c0,85.2-29.4,213.9-70.5,352.8"/>
		<path class="st3" d="M2877.4,4333.6V4711"/>
		<path class="st3" d="M2877.4,2834.5v1216.1"/>
		<path class="st3" d="M3827.3,2827.3c0,109.5,274.4,1716.2,314.7,1883.7"/>
		<path class="st3" d="M3666.6,4349.2c-101.7-225.3-213.1-483.7-237.8-558.4"/>
		<path class="st3" d="M3840.7,4711c-14.2-21.6-46.4-86.5-86.9-172.8"/>
		
			<ellipse transform="matrix(7.088904e-02 -0.9975 0.9975 7.088904e-02 -1080.3761 2711.6426)" class="st4" cx="915.4" cy="1935.8" rx="80.2" ry="80.2"/>
		<circle class="st7" cx="2459.7" cy="2070" r="75.7"/>
		<circle class="st2" cx="1775.1" cy="3769.1" r="75.7"/>
		
			<rect x="1048.7" y="720.4" transform="matrix(0.759 -0.651 0.651 0.759 -522.4686 1166.9535)" class="st2" width="533.2" height="1137.8"/>
		<path class="st2" d="M3650.7,1164.7c-6.3,46.6-18.3,213.8-13.3,271.9c-26,25-150.2,30-201.2-15c10-48.1,33.1-90.1,20-190.3
			C3443.2,1131.3,3650.7,1164.7,3650.7,1164.7z"/>
		<path class="st3" d="M3428.5,1362c9.6-35.6,18.6-77.4,9.1-148.9c-13-100.2,194.5-66.7,194.5-66.7c-6.3,46.6-18.3,213.8-13.3,271.9
			c-20.2,19.4-99.7,26.8-158.1,8"/>
		<ellipse class="st2" cx="3491.6" cy="947.8" rx="229.5" ry="301.1"/>
		<path class="st3" d="M3249.1,994.3c-3.6-21.4-5.4-43.1-5.4-64.8c0-166.3,102.8-301.1,229.5-301.1c126.8,0,229.5,134.8,229.5,301.1
			c0.4,58.3-12.9,116-39.1,168.1"/>
		<path class="st3" d="M3549.3,1213.7c-23.8,11.1-49.7,16.8-76,16.9c-83.4,0-156.5-58.4-196.7-145.8"/>
		<ellipse class="st8" cx="3371.1" cy="949.3" rx="9.8" ry="26.5"/>
		<path class="st3" d="M3328.2,955.8c0,21.4-19.3,57.6-38,77.2"/>
		<path class="st3" d="M3348.7,1136.5c10,0,45.4-12.7,70.7-49.6"/>
		<path class="st9" d="M3596.2,1026.2c9.9,13.4,19.9,110.6,41.2,116.9c21.2,6.4,111.2-164.6,111.2-233.2
			c0-124-73.2-401.9-180.7-401.9c-39,0-42.5,60.3-42.5,83.6c-12.8-32-71.6-100.6-146-100.6c-126.2,0-124.2,118.9-102.1,212.7
			c-22-12.1-22.9-15.6-49.6-15.6c-24.1,0-36.9,31.5-36.9,64.5c0,79.4,42.7,107.7,75.9,121.2c33.2,13.5,128.9,19.8,192.1,18.3
			C3466.4,910.1,3524.5,1027.6,3596.2,1026.2z"/>
		<path class="st3" d="M3299.7,862.7c45.2,5.3,90.6,7.5,136.1,6.7c7.8,17.7,65.9,135.4,137.5,134c9.9,13.4,19.9,110.6,41.2,116.9
			c5.5,1.7,15.8-8.8,27.9-26.4"/>
		<path class="st3" d="M3272.4,498.5c-38.9,41.2-33.2,117.7-18.1,182.2c-22-12.1-22.9-15.6-49.6-15.6c-24.1,0-36.9,31.5-36.9,64.5
			c0,56.3,21.4,86.9,45.7,104.8"/>
		<path class="st3" d="M3606,516c-18.8-19.3-39.2-30.8-61.1-30.8c-39,0-42.5,60.2-42.5,83.6c-12.8-32-71.6-100.6-146-100.6
			c-3.3,0-6.6,0-9.7,0"/>
		<path class="st3" d="M3693.7,998.3c18.3-41.6,32-84.3,32-111.3c0-75.4-26.9-207.4-72.3-299.6"/>
		<circle class="st2" cx="3560.3" cy="986.4" r="72.4"/>
		<path class="st3" d="M3505.8,905.5c34.6-20,78.9-8.2,99,26.4c20,34.6,8.2,78.9-26.4,99c-11.1,6.4-23.6,9.8-36.4,9.7"/>
		<path class="st2" d="M3351.1,1545.3c-50.3-22.9-412.2-154.2-443.6-185.7s-266.3-483-273.9-504.4c6.7-7.4,19-42.5,18.3-82.3
			c-0.7-39.8-26.3-50.7-28.3-175c-0.6-42.6-63.1,2.3-62.3,90.6c-74.1-5.7-168.1-186.5-225.3-106.8
			c196.7,397.1,413.5,1008.6,431.7,1026.8s488.4,255.6,498.9,249.1S3372.7,1571.3,3351.1,1545.3z"/>
		<path class="st6" d="M3802.6,1915.7c37-144.8-185.4-377.9-425.7-400.7c-39.6,21.4-156.4,288.4-142.6,373.8
			C3324.8,1985.4,3744,2145.3,3802.6,1915.7z"/>
		<path class="st3" d="M3338.3,1507.7c-48.2,62.8-139.2,282.3-126.9,358.2c16.8,18,45.1,38.1,80.3,57.6"/>
		<path class="st3" d="M3354,1492.1c-6.2,4.2-11.5,9.5-15.7,15.6"/>
		<path class="st3" d="M3469.2,1993.2c136.1,34.4,278.2,26.3,310.6-100.4c29.2-114.3-103.2-283.5-278.4-361.3"/>
		<path class="st3" d="M2344.9,615.2c-10.4-19.1-21.1-38-32-56.5c-15.1-21.6,52.9-63.2,161.2,79.1"/>
		<path class="st3" d="M2838.5,1639.5c-46.4-25.5-81.9-45.7-93.7-54c-40.7-28.9-161.5-501.2-360.9-896.4"/>
		<path class="st3" d="M3211,1834.6c-13.7-5.3-136.2-68.6-252.8-130.6"/>
		<path class="st3" d="M2678.5,966.5c-37.3-71.7-65.2-127-67.7-134.1c6.7-7.4,19-42.5,18.3-82.3c-0.7-39.8-26.3-50.7-28.3-175
			c-0.6-42.6-63.1,2.3-62.3,90.6"/>
		<path class="st3" d="M3328.2,1522.4c-50.3-22.9-412.2-154.2-443.6-185.7c-13-13-60.5-97.3-112.3-193.5"/>
		<polygon class="st10" points="2336,2396.7 1348,2650.8 2061.9,3379.4 		"/>
	</g>
</g>
</svg>
