<?xml version="1.0" encoding="utf-8"?>
<!-- Generator: Adobe Illustrator 25.3.1, SVG Export Plug-In . SVG Version: 6.00 Build 0)  -->
<svg version="1.1" id="图层_1" xmlns="http://www.w3.org/2000/svg" xmlns:xlink="http://www.w3.org/1999/xlink" x="0px" y="0px"
	 viewBox="0 0 4818.9 4818.9" style="enable-background:new 0 0 4818.9 4818.9;" xml:space="preserve">
<style type="text/css">
	.st0{fill:#F0F0F0;}
	.st1{fill:none;stroke:#B7C7FB;stroke-width:35.31;stroke-linecap:round;stroke-linejoin:round;}
	.st2{fill-rule:evenodd;clip-rule:evenodd;fill:#EAF0FF;}
	.st3{fill-rule:evenodd;clip-rule:evenodd;fill:#B2C3FB;}
	.st4{fill:none;stroke:#B2C3FB;stroke-width:35.31;stroke-linecap:round;stroke-linejoin:round;}
	.st5{fill-rule:evenodd;clip-rule:evenodd;fill:#F4F7FF;}
	.st6{fill:none;stroke:#E9EFFF;stroke-width:35.31;stroke-linecap:round;stroke-linejoin:round;}
	.st7{fill-rule:evenodd;clip-rule:evenodd;fill:#46DBC9;}
	.st8{fill:none;stroke:#1B3C87;stroke-width:21.13;stroke-linecap:round;stroke-linejoin:round;}
	.st9{fill-rule:evenodd;clip-rule:evenodd;fill:#FFFFFF;}
	.st10{fill-rule:evenodd;clip-rule:evenodd;fill:#1B3C87;}
	.st11{fill-rule:evenodd;clip-rule:evenodd;fill:#EDCA55;}
	.st12{fill-rule:evenodd;clip-rule:evenodd;fill:#3C3744;}
</style>
<g id="Layer_2">
	<g id="Layer_1-2">
		<path class="st0" d="M3498.3,807.4c314.3,350.2,478.1,792.4,524.1,1228.7c45.1,436.3-27.6,867.6-204,1303.1
			c-175.5,434.6-454.7,873.5-865.1,1079.9c-411.2,206.5-954.5,179.7-1360.8-45.1c-405.3-224.8-674.5-648.6-951.1-1087.4
			S79.7,2393.8,176.7,2035.3s575.1-621,985.5-954.5c410.4-332.7,752.3-736.4,1155.1-809.1C2720.1,199.7,3184,457.2,3498.3,807.4z"/>
		<path class="st1" d="M564.6,3758.4L291.8,3004L18.9,2249.6l789.7,140.9l789.8,140.9l-516.9,613.5L564.6,3758.4z"/>
		<path class="st2" d="M303.4,904.8h2554.4v2459.3H303.4V904.8z"/>
		<path class="st3" d="M1044.2,1308.9h1423.5v98.2H1044.2V1308.9z"/>
		<path class="st3" d="M1044.2,1746.9h1423.5v98.2H1044.2V1746.9z"/>
		<path class="st3" d="M1044.2,2184.9h1423.5v98.3H1044.2V2184.9z"/>
		<path class="st4" d="M819.8,1263.8l-165.1,156l-79-74.6"/>
		<path class="st4" d="M819.8,1722.6l-165.1,156l-79-74.6"/>
		<path class="st4" d="M819.8,2181.4l-165.1,156l-79-74.6"/>
		<path class="st5" d="M1044.2,2623h1423.5v98.2H1044.2V2623z"/>
		<path class="st5" d="M1044.2,3061h1423.5v98.3H1044.2V3061z"/>
		<path class="st6" d="M3576.5,2884.4c0-337.9,273.9-611.8,611.8-611.8s611.8,273.9,611.8,611.8s-273.9,611.8-611.8,611.8
			S3576.5,3222.3,3576.5,2884.4z"/>
		<path class="st7" d="M2673.9,1986.2c-157.2-31.4-352.5,163.8-338.8,451.9l189.6,39.4C2524.7,2477.5,2687.6,1989,2673.9,1986.2z"/>
		<path class="st8" d="M2314,2304.5c-4.6,34.8-6.1,69.9-4.4,105"/>
		<path class="st8" d="M2648.4,1957.5c-99.5-19.9-214.4,51.1-281.7,179"/>
		<path class="st7" d="M3038.5,1868.4c593.3,0,708.1,686,629.3,1641.6c-257.2,107.9-889.3,163.2-1168.6-6.9
			C2367.7,3135.2,2291.4,1868.4,3038.5,1868.4z"/>
		<path class="st9" d="M2610.9,1252.9c0-251.7,152-455.8,339.5-455.8s339.5,204.1,339.5,455.8s-152,455.8-339.5,455.8
			S2610.9,1504.6,2610.9,1252.9z"/>
		<path class="st10" d="M2887,1253.2c0-22,9.1-39.8,20.4-39.8s20.4,17.8,20.4,39.8s-9.1,39.8-20.4,39.8S2887,1275.1,2887,1253.2z"/>
		<path class="st8" d="M2793.2,1327.3c-0.6,24.6-7.8,77.6-42,111.9"/>
		<path class="st8" d="M2870.8,1538.1c28.5-3.9,64-14.9,86.7-48.5"/>
		<path class="st8" d="M3509,2599.9c19.2,54.8,61.5,200.9,61.5,200.9s-299.6-153.8-440.4-224.8"/>
		<path class="st8" d="M2779.2,2626.8l-35.8,117.9"/>
		<path class="st8" d="M2892.7,2252.9l-47.6,156.9"/>
		<path class="st8" d="M3132,3573.4c-250.5,16-518.5-8.4-675.4-103.9c-98.1-274.7-165.5-1050.6,117.6-1426"/>
		<path class="st8" d="M2744.2,1894.5c71.1-38.2,154.4-59.7,251.8-59.7c593.3,0,708.1,686,629.3,1641.6
			c-39.1,16.4-86.9,31.6-140.9,45"/>
		<path class="st8" d="M3613,3463.6c0,63.8-9.9,1018.5-9.9,1018.5"/>
		<path class="st9" d="M2882.7,2453.8c-35.8,0-190.4,19.7-102.9,162.7c50.2,81.9,70.9,58.4,91.9,32.5c16.4,8.5,41.6,28.7,57.9,42.2
			c-0.1,0.3-0.2,0.5-0.3,0.8c44.2,34.5,628.1,544.2,748.1,574.8s255.1-88.2,307-177.5c57.3-98.5-51.3-498.1-70.5-542.2
			s-370.6,97.6-370.6,97.6s56.9,170.2,71.9,240.6c-33.1-18.6-555.3-273.8-623.3-352.3c-0.1,0.2-0.2,0.6-0.4,0.9
			C2966.8,2508.4,2910.2,2453.8,2882.7,2453.8z"/>
		<path class="st8" d="M2448.5,3454.3l-0.7,923"/>
		<path class="st8" d="M2890.8,4040.1c32.5,138.9,68.1,292.8,102.5,442"/>
		<path class="st9" d="M3241.3,1441.6c-1.9,23.2-52.2,414.3-34.1,553.4c-43.2,36.7-341.8,42.1-335.7-12.9
			c10.3-92.1,32.2-235.2,13.5-308"/>
		<path class="st8" d="M2845.1,1941.6c10.3-92.1,25.6-191.8,15.4-273.9"/>
		<path class="st8" d="M3210.9,1456.9c-1.9,23.2-48.1,358.4-30.1,497.5c-17,14.5-73.8,24.1-135.9,27"/>
		<path class="st8" d="M3072.9,1626.7c-44.9,29.5-95.5,46-148.9,46c-118.3,0-222.4-81.2-283.2-204.3"/>
		<path class="st8" d="M2594.7,1328c-6.8-36.6-10.2-73.8-10.2-111.1c0-251.8,152-455.8,339.5-455.8s339.5,204.1,339.5,455.8
			c0,112.1-30.1,214.7-80.1,294"/>
		<path class="st11" d="M3260.8,1503.9c38.1,6.9,102.4-198.8,115.6-322.9c23.4-221.1-208.5-502.3-381.7-519.7
			c-34-3.4-72.4,31.6-51.6,90.1c-42-44.1-152.1-102.3-247.2-114.6c-144.5-18.6-214.3,77.5-214.3,120.2c0,42.8,25.9,176.6,77.8,218
			c-41.9-0.5-79.2,3.3-83.8,37.3c-14.4,104.6,44.9,199.2,145.3,189.5c7-58.9,19.6-116,40.3-154.4
			c16.8,151.1,400.8,100.4,400.1,125.6c-2.9,97.2,112.4,97.2,116.4,99.6C3266.7,1326.1,3200.1,1492.9,3260.8,1503.9z"/>
		<path class="st8" d="M2449.9,753.7c9,57.7,33.6,145.8,73.9,178c-41.9-0.5-79.2,3.3-83.8,37.3c-12.4,90.1,29.9,172.7,105.9,187.8"
			/>
		<path class="st8" d="M3235,816.7c-77.8-107.7-185-189.6-275.9-198.8c-34-3.4-72.4,31.6-51.6,90.1
			c-41.9-44.1-152.1-102.3-247.2-114.5c-62.6-8-111.1,5.4-146.1,26.7"/>
		<path class="st8" d="M3196,1401.7c2.1,31.2,7.6,54.8,29.2,58.8c38.1,6.9,102.4-198.8,115.6-322.9c3.9-36.3,0.8-74.2-7.7-112.4"/>
		<path class="st8" d="M2608.4,1045.1c4.5-14.2,10.2-27.9,17.1-41.1c16.8,151.1,400.8,100.4,400,125.7c-0.5,15.4,2,28.3,6.6,39.3"/>
		<path class="st9" d="M3097.4,1227.5c39-27.1,92.6-17.4,119.7,21.6c27.1,39,17.4,92.6-21.6,119.7c-14.4,10-31.6,15.4-49.2,15.4
			c-5.2,0-10.4-0.5-15.6-1.4"/>
		<path class="st8" d="M3089.6,1209.6c39-27.1,92.6-17.4,119.7,21.6s17.4,92.6-21.6,119.7c-14.4,10-31.6,15.4-49.2,15.4
			c-5.2,0-10.4-0.5-15.5-1.4"/>
		<path class="st3" d="M2076.6,2427.2l624.2,99.7L2549.9,3472l-624.2-99.7L2076.6,2427.2z"/>
		<path class="st8" d="M1896.7,3312.4l150.9-945.1l624.2,99.7l-48.6,304.6"/>
		<path class="st8" d="M2567.6,3119.7l-46.7,292.4l-425.7-68"/>
		<path class="st9" d="M1897.3,3192.3c-28.4-214.8-6.6-355.4,115.8-395.4c49.4-16.2,0.7,297.8-18.9,349.5
			S1920.6,3139.1,1897.3,3192.3z"/>
		<path class="st8" d="M1877.5,2961.1c-13.6-44.5-5.8-140.4,147.2-194.6"/>
		<path class="st8" d="M1867.9,3092.8c-13.6-44.5-5.8-140.4,147.2-194.6"/>
		<path class="st8" d="M1876.6,3206.1c-13.6-44.5-5.8-140.4,147.2-194.6"/>
		<path class="st8" d="M3059.2,1247c6.4-15.1,16.9-28.1,30.4-37.5"/>
		<path class="st8" d="M3972.9,2985.6c-2.6,18.6-7,34.1-13.7,45.5c-51.9,89.3-187,208.1-307,177.5s-696.8-552.3-748.1-574.8"/>
		<path class="st8" d="M3888.8,2488.9c9.9,22.7,43.5,139.6,65.9,261.2"/>
		<path class="st8" d="M2959.9,2493.7c-42.5-119.3-134.1-86.6-223.2-8.8"/>
		<path class="st8" d="M2861.4,2509c-25-1.8-86.9,21.6-115.2,45.9"/>
		<path class="st8" d="M2879.5,2583.4c-27-0.6-71,21.1-104.8,37.7"/>
		<path class="st7" d="M3451.7,1942.9c278.7-94.8,546.7,507.4,533.6,570.5s-451.9,190.4-502.4,150.6S3290.2,1997.8,3451.7,1942.9z"
			/>
		<path class="st8" d="M3557.8,2624.6c-54.4,9.1-96.4,10.5-110.1-0.2c-22.2-17.5-62.1-148.3-86.2-294.1"/>
		<path class="st8" d="M3504.6,1895.2c244.4,35.2,457.2,522.2,445.5,578.6c-7.2,34.4-141,88-269.3,123"/>
		<polygon class="st12" points="3632.8,4482.1 3633.7,3518.3 2480.1,3511 2476,4482.1 		"/>
	</g>
</g>
</svg>
