<svg id="图层_1" data-name="图层 1" xmlns="http://www.w3.org/2000/svg" xmlns:xlink="http://www.w3.org/1999/xlink" viewBox="0 0 807.93 702.4"><defs><style>.cls-1,.cls-2,.cls-55,.cls-62{fill:none;}.cls-2{clip-rule:evenodd;}.cls-3{clip-path:url(#clip-path);}.cls-4{clip-path:url(#clip-path-2);}.cls-5{fill:#e6e6e6;}.cls-6{clip-path:url(#clip-path-3);}.cls-7{fill:#fff;}.cls-8{clip-path:url(#clip-path-5);}.cls-9{fill:#666;}.cls-10{clip-path:url(#clip-path-7);}.cls-11{clip-path:url(#clip-path-9);}.cls-12{clip-path:url(#clip-path-11);}.cls-13{clip-path:url(#clip-path-13);}.cls-14{clip-path:url(#clip-path-15);}.cls-15{clip-path:url(#clip-path-17);}.cls-16{clip-path:url(#clip-path-19);}.cls-17{clip-path:url(#clip-path-20);}.cls-18{fill:#658fee;}.cls-19{clip-path:url(#clip-path-22);}.cls-20{clip-path:url(#clip-path-24);}.cls-21{clip-path:url(#clip-path-26);}.cls-22{clip-path:url(#clip-path-28);}.cls-23{clip-path:url(#clip-path-30);}.cls-24{clip-path:url(#clip-path-32);}.cls-25{fill:#ccc;}.cls-26{clip-path:url(#clip-path-34);}.cls-27{fill:#407bff;}.cls-28{clip-path:url(#clip-path-36);}.cls-29{clip-path:url(#clip-path-38);}.cls-30{clip-path:url(#clip-path-40);}.cls-31{clip-path:url(#clip-path-42);}.cls-32{clip-path:url(#clip-path-44);}.cls-33{clip-path:url(#clip-path-46);}.cls-34{clip-path:url(#clip-path-48);}.cls-35{clip-path:url(#clip-path-50);}.cls-36{clip-path:url(#clip-path-52);}.cls-37{clip-path:url(#clip-path-54);}.cls-38{clip-path:url(#clip-path-56);}.cls-39{fill:#a0616a;}.cls-40{clip-path:url(#clip-path-58);}.cls-41{clip-path:url(#clip-path-60);}.cls-42{clip-path:url(#clip-path-62);}.cls-43{fill:#2f2e41;}.cls-44{clip-path:url(#clip-path-64);}.cls-45{clip-path:url(#clip-path-66);}.cls-46{clip-path:url(#clip-path-68);}.cls-47{clip-path:url(#clip-path-70);}.cls-48{clip-path:url(#clip-path-72);}.cls-49{clip-path:url(#clip-path-74);}.cls-50{clip-path:url(#clip-path-76);}.cls-51{clip-path:url(#clip-path-78);}.cls-52{clip-path:url(#clip-path-80);}.cls-53{clip-path:url(#clip-path-82);}.cls-54{fill:#f2f2f2;}.cls-55{stroke:#666;}.cls-55,.cls-62{stroke-miterlimit:10;stroke-width:1.3px;}.cls-56{clip-path:url(#clip-path-85);}.cls-57{clip-path:url(#clip-path-87);}.cls-58{clip-path:url(#clip-path-89);}.cls-59{clip-path:url(#clip-path-91);}.cls-60{clip-path:url(#clip-path-93);}.cls-61{clip-path:url(#clip-path-95);}.cls-62{stroke:#737373;}.cls-63{clip-path:url(#clip-path-98);}.cls-64{clip-path:url(#clip-path-100);}.cls-65{isolation:isolate;}.cls-66{clip-path:url(#clip-path-102);}.cls-67{clip-path:url(#clip-path-103);}.cls-68{clip-path:url(#clip-path-104);}.cls-69{clip-path:url(#clip-path-106);}.cls-70{clip-path:url(#clip-path-108);}.cls-71{clip-path:url(#clip-path-110);}.cls-72{clip-path:url(#clip-path-111);}.cls-73{clip-path:url(#clip-path-112);}.cls-74{clip-path:url(#clip-path-113);}.cls-75{clip-path:url(#clip-path-114);}.cls-76{clip-path:url(#clip-path-116);}.cls-77{clip-path:url(#clip-path-118);}</style><clipPath id="clip-path" transform="translate(3.96 -48.64)"><path class="cls-1" d="M665.82,217.65H662V113.75A60.15,60.15,0,0,0,601.88,53.6H381.73a60.16,60.16,0,0,0-60.14,60.15V683.8a60.14,60.14,0,0,0,60.14,60.14H601.88A60.13,60.13,0,0,0,662,683.8V291.62h3.8Z"/></clipPath><clipPath id="clip-path-2" transform="translate(3.96 -48.64)"><rect class="cls-1" x="4.97" y="2.99" width="794.03" height="794.03"/></clipPath><clipPath id="clip-path-3" transform="translate(3.96 -48.64)"><path class="cls-1" d="M604.31,69.25H575.58a21.33,21.33,0,0,1-19.76,29.39H429.7a21.33,21.33,0,0,1-19.76-29.39H383.1a44.91,44.91,0,0,0-44.91,44.91V683.39A44.91,44.91,0,0,0,383.1,728.3H604.31a44.91,44.91,0,0,0,44.91-44.91V114.16A44.9,44.9,0,0,0,604.31,69.25Z"/></clipPath><clipPath id="clip-path-5" transform="translate(3.96 -48.64)"><path class="cls-1" d="M427.87,484.22c-12.49-.16-22.48-10.05-22.32-22.1-.14-11.39,8.84-21,20.61-22v2.27A20,20,0,0,0,411,451.46a2.18,2.18,0,0,0-.28,1.77,2.24,2.24,0,0,0,1.2,1.38l2.8,1.32-1.28,4.54v.13l-3.12-.22h-.24a2.34,2.34,0,0,0-1.55.63v-1.45a.24.24,0,0,0,0-.23.26.26,0,0,0-.21-.11c-.19,0-.36,0-.36.23a21.69,21.69,0,0,0-.16,2.42,2.22,2.22,0,0,0,0,.89A20.23,20.23,0,0,0,421.94,481a2.28,2.28,0,0,0,2.92-1.66l.57-2.79h4.89l.59,2.82a2.24,2.24,0,0,0,1.08,1.47c-.6.13-1.22.23-1.83.3a.39.39,0,0,0-.24.34c0,.11.19.22.31.22a18.66,18.66,0,0,0,2.87-.56,2.62,2.62,0,0,0,.68-.12,20,20,0,0,0,14.11-18.15,2,2,0,0,0-.63-1.65,2.4,2.4,0,0,0-1.65-.71h-.19l-3,.16-1.2-4.24a.28.28,0,0,0,0-.18.45.45,0,0,0,0-.23l2.66-1.27a2.3,2.3,0,0,0,1.2-1.36,18.25,18.25,0,0,1,1.24,2.88.29.29,0,0,0,.29.16h.11a.28.28,0,0,0,.17-.34,22,22,0,0,0-1.88-3.95,3.88,3.88,0,0,0-.24-.45,19.71,19.71,0,0,0-15.06-9.08v-2.26c11.77,1,20.74,10.61,20.61,22,.06,12-10,21.8-22.42,21.92Zm0-41.86h-1.15v-2.27h2.35v2.27ZM440.58,455a1,1,0,0,0-.61.75l-7.18,1.05a7.53,7.53,0,0,0-4.87-1.84,7.35,7.35,0,0,0-4.87,1.84l-7.22-1.05a1,1,0,0,0-.57-.72l-2.8-1.27a1.18,1.18,0,0,1-.59-.72,1.11,1.11,0,0,1,.15-.9,19,19,0,0,1,31.71,0,1.14,1.14,0,0,1,.11.9,1.22,1.22,0,0,1-.58.72Zm-27.15,6.81a1.17,1.17,0,0,0,.89-.41l6.33,2.5a7.46,7.46,0,0,0,3.27,4.53l.94,7.22a1.1,1.1,0,0,0-.66.79l-.56,2.82a1.13,1.13,0,0,1-1.15.88.73.73,0,0,1-.36,0,18.81,18.81,0,0,1-13.1-17.4,1.06,1.06,0,0,1,.31-.82,1.2,1.2,0,0,1,.84-.34l3.15.23ZM434.27,463a.54.54,0,0,0-.33.39,6.31,6.31,0,0,1-3,4.15.39.39,0,0,0-.29.38l-1,7.51H426l-1-7.51a.48.48,0,0,0-.28-.38,6.18,6.18,0,0,1-3-4.2.5.5,0,0,0-.33-.39l-6.7-2.74,1-3.47,7.48,1a.72.72,0,0,0,.47-.15,6.22,6.22,0,0,1,8.52,0,.58.58,0,0,0,.4.18l7.52-1,1,3.49L434.2,463Zm-.73,17a.69.69,0,0,1-.35,0,1.21,1.21,0,0,1-1.15-.89l-.57-2.81a1.06,1.06,0,0,0-.61-.77l.9-7.19a7.51,7.51,0,0,0,3.27-4.54l6.51-2.54a1.12,1.12,0,0,0,.87.38l3-.16a1.14,1.14,0,0,1,.82.35,1,1,0,0,1,.31.81,18.94,18.94,0,0,1-13.15,17.22Zm-5.67-41a24.22,24.22,0,0,0-16.74,6.9,23,23,0,0,0,0,32.6,23.79,23.79,0,0,0,33.51,0,23,23,0,0,0,0-32.6A24.26,24.26,0,0,0,427.87,439Z"/></clipPath><clipPath id="clip-path-7" transform="translate(3.96 -48.64)"><path class="cls-1" d="M408.79,456.75v.15a.2.2,0,0,0,0,.2.22.22,0,0,0,.16.12.43.43,0,0,0,.3-.16v-.16a.23.23,0,0,0,0-.34.3.3,0,0,0-.29-.05A.28.28,0,0,0,408.79,456.75Z"/></clipPath><clipPath id="clip-path-9" transform="translate(3.96 -48.64)"><path class="cls-1" d="M408.75,457.61a.36.36,0,0,0-.36.22,1.83,1.83,0,0,1,0,.66.36.36,0,0,0,.08.23.29.29,0,0,0,.43,0,.27.27,0,0,0,.08-.19,2.08,2.08,0,0,1,0-.61A.35.35,0,0,0,408.75,457.61Z"/></clipPath><clipPath id="clip-path-11" transform="translate(3.96 -48.64)"><path class="cls-1" d="M425.92,481.13h-.28a.32.32,0,0,0-.28.09.27.27,0,0,0-.05.27.27.27,0,0,0,.21.19h.35c.17,0,.29,0,.29-.3S426.09,481.13,425.92,481.13Z"/></clipPath><clipPath id="clip-path-13" transform="translate(3.96 -48.64)"><path class="cls-1" d="M428.39,481.25H427a.28.28,0,0,0-.28.27.23.23,0,0,0,.08.2.25.25,0,0,0,.2.07h1.39a.27.27,0,0,0,.21-.07.25.25,0,0,0,.07-.2A.27.27,0,0,0,428.39,481.25Z"/></clipPath><clipPath id="clip-path-15" transform="translate(3.96 -48.64)"><path class="cls-1" d="M447.17,457.18a.27.27,0,0,0-.36-.23c-.19.05-.28.18-.21.34s0,.5.17.73a.35.35,0,0,0,.28.2.23.23,0,0,0,.23-.32Z"/></clipPath><clipPath id="clip-path-17" transform="translate(3.96 -48.64)"><path class="cls-1" d="M429.73,462.26a1.71,1.71,0,0,1-.82,1.66,1.87,1.87,0,0,1-1.91,0,1.71,1.71,0,0,1-.82-1.66,1.8,1.8,0,0,1,1.79-1.77,1.75,1.75,0,0,1,1.67,1.77Zm-4,0A2.24,2.24,0,1,0,428,460.1,2.19,2.19,0,0,0,425.73,462.26Z"/></clipPath><clipPath id="clip-path-19" transform="translate(3.96 -48.64)"><rect class="cls-1" x="419.22" y="434.74" width="19.06" height="18.32"/></clipPath><clipPath id="clip-path-20" transform="translate(3.96 -48.64)"><path class="cls-1" d="M424.59,449.28l.65-.44a3.35,3.35,0,0,1-1.27-2.59,3.12,3.12,0,0,1,1-1.76,6.37,6.37,0,0,0,1.08-1.55,5.37,5.37,0,0,0-1-5.12l-.8.34a4.85,4.85,0,0,1,1,4.54,5.44,5.44,0,0,1-.95,1.37,3.46,3.46,0,0,0-1.13,2.11,4,4,0,0,0,1.48,3.1Z"/></clipPath><clipPath id="clip-path-22" transform="translate(3.96 -48.64)"><path class="cls-1" d="M432.63,449.28l.65-.44a3.32,3.32,0,0,1-1.27-2.59,3.06,3.06,0,0,1,1-1.76,6.37,6.37,0,0,0,1.08-1.55,5.37,5.37,0,0,0-1-5.12l-.8.34a4.85,4.85,0,0,1,1,4.54,5.48,5.48,0,0,1-1,1.37,3.44,3.44,0,0,0-1.12,2.11,4,4,0,0,0,1.48,3.1Z"/></clipPath><clipPath id="clip-path-24" transform="translate(3.96 -48.64)"><path class="cls-1" d="M428.64,449.28l.67-.42a3.2,3.2,0,0,1-1.23-2.51,2.91,2.91,0,0,1,.91-1.72,6.21,6.21,0,0,0,1.05-1.49,5.17,5.17,0,0,0-.94-4.95l-.78.31a4.68,4.68,0,0,1,.89,4.41,4.61,4.61,0,0,1-.94,1.33,3.47,3.47,0,0,0-1.09,2A3.82,3.82,0,0,0,428.64,449.28Z"/></clipPath><clipPath id="clip-path-26" transform="translate(3.96 -48.64)"><polygon class="cls-1" points="428.12 437.2 427.79 439.27 430.16 438.13 428.12 437.2"/></clipPath><clipPath id="clip-path-28" transform="translate(3.96 -48.64)"><polygon class="cls-1" points="424.1 437.19 423.77 439.26 426.14 438.13 424.1 437.19"/></clipPath><clipPath id="clip-path-30" transform="translate(3.96 -48.64)"><polygon class="cls-1" points="432.13 437.19 431.81 439.26 434.18 438.13 432.13 437.19"/></clipPath><clipPath id="clip-path-32" transform="translate(3.96 -48.64)"><path class="cls-1" d="M759.13,637.89,551.55,638a1,1,0,0,1,0-2l207.58-.08a1,1,0,1,1,0,2Z"/></clipPath><clipPath id="clip-path-34" transform="translate(3.96 -48.64)"><circle class="cls-1" cx="756.37" cy="636.9" r="13.9"/></clipPath><clipPath id="clip-path-36" transform="translate(3.96 -48.64)"><path class="cls-1" d="M754.17,371.89,544.61,372a1,1,0,1,1,0-2l209.56-.08a1,1,0,1,1,0,2Z"/></clipPath><clipPath id="clip-path-38" transform="translate(3.96 -48.64)"><circle class="cls-1" cx="756.37" cy="371.89" r="13.9"/></clipPath><clipPath id="clip-path-40" transform="translate(3.96 -48.64)"><path class="cls-1" d="M217.64,235.92,427.2,236a1,1,0,1,0,0-2l-209.56-.08a1,1,0,0,0,0,2Z"/></clipPath><clipPath id="clip-path-42" transform="translate(3.96 -48.64)"><circle class="cls-1" cx="215.44" cy="235.92" r="13.9"/></clipPath><clipPath id="clip-path-44" transform="translate(3.96 -48.64)"><path class="cls-1" d="M217.64,504.89,427.2,505a1,1,0,1,0,0-2l-209.56-.08a1,1,0,1,0,0,2Z"/></clipPath><clipPath id="clip-path-46" transform="translate(3.96 -48.64)"><circle class="cls-1" cx="215.44" cy="504.89" r="13.9"/></clipPath><clipPath id="clip-path-48" transform="translate(3.96 -48.64)"><path class="cls-1" d="M556.73,550.63a42.68,42.68,0,1,0,42.68,42.68A42.68,42.68,0,0,0,556.73,550.63Zm0,87.35a44.67,44.67,0,1,1,44.67-44.67A44.66,44.66,0,0,1,556.73,638Z"/></clipPath><clipPath id="clip-path-50" transform="translate(3.96 -48.64)"><path class="cls-1" d="M427.7,417.63a42.68,42.68,0,1,0,42.68,42.68A42.68,42.68,0,0,0,427.7,417.63Zm0,87.35a44.67,44.67,0,1,1,44.67-44.67A44.66,44.66,0,0,1,427.7,505Z"/></clipPath><clipPath id="clip-path-52" transform="translate(3.96 -48.64)"><path class="cls-1" d="M547.8,284.63a42.68,42.68,0,1,0,42.68,42.68A42.68,42.68,0,0,0,547.8,284.63Zm0,87.35a44.67,44.67,0,1,1,44.66-44.67A44.67,44.67,0,0,1,547.8,372Z"/></clipPath><clipPath id="clip-path-54" transform="translate(3.96 -48.64)"><path class="cls-1" d="M428.69,148.57a42.68,42.68,0,1,0,42.68,42.68A42.67,42.67,0,0,0,428.69,148.57Zm0,87.35a44.67,44.67,0,1,1,44.67-44.67A44.67,44.67,0,0,1,428.69,235.92Z"/></clipPath><clipPath id="clip-path-56" transform="translate(3.96 -48.64)"><path class="cls-1" d="M148.39,538.54a11,11,0,0,1-4.27-7.82c0-.36,0-.72,0-1.08L97.88,498.52a8.48,8.48,0,0,1-3.31-9.6L116.66,434a9.63,9.63,0,0,1,17.89,7.12L116.71,486.5l36,32.69a10.23,10.23,0,0,1,1.44-.22,10.92,10.92,0,0,1,3,21.6,11.64,11.64,0,0,1-2.13.2A10.8,10.8,0,0,1,148.39,538.54Z"/></clipPath><clipPath id="clip-path-58" transform="translate(3.96 -48.64)"><path class="cls-1" d="M97.9,466.35a4.77,4.77,0,0,1,.1-4l10.54-21.55a13.28,13.28,0,0,1,25.33,8L130,472.55a4.77,4.77,0,0,1-6.16,3.79l-23-7.31A4.76,4.76,0,0,1,97.9,466.35Z"/></clipPath><clipPath id="clip-path-60" transform="translate(3.96 -48.64)"><polygon class="cls-1" points="170.63 732.45 182.8 732.45 188.59 685.51 170.63 685.52 170.63 732.45"/></clipPath><clipPath id="clip-path-62" transform="translate(3.96 -48.64)"><path class="cls-1" d="M167.53,728.48h24a15.26,15.26,0,0,1,15.27,15.27v.49H167.53Z"/></clipPath><clipPath id="clip-path-64" transform="translate(3.96 -48.64)"><polygon class="cls-1" points="51.64 723.83 63.43 726.86 80.72 682.84 63.33 678.37 51.64 723.83"/></clipPath><clipPath id="clip-path-66" transform="translate(3.96 -48.64)"><path class="cls-1" d="M49.63,719.21l23.21,6h0a15.29,15.29,0,0,1,11,18.6l-.13.48-38-9.77Z"/></clipPath><clipPath id="clip-path-68" transform="translate(3.96 -48.64)"><circle class="cls-1" cx="136.99" cy="386.08" r="24.38" transform="translate(-17.35 6.6) rotate(-2.6)"/></clipPath><clipPath id="clip-path-70" transform="translate(3.96 -48.64)"><path class="cls-1" d="M124.66,487.48A88,88,0,0,1,110,467.4a32.43,32.43,0,0,1-1.53-26.28,33.2,33.2,0,0,1,18.85-19.2,32.64,32.64,0,0,1,41.3,15.33c6.1,11.94,8.49,23.61,7.1,34.69-2.64,21.19-4.19,32.14-4.6,32.55l-.14.14-45.35,2Z"/></clipPath><clipPath id="clip-path-72" transform="translate(3.96 -48.64)"><path class="cls-1" d="M127.36,500.78l40.58-2a4,4,0,0,1,4.15,3.61l18.67,209.26a4,4,0,0,1-4,4.32l-15.86-.34a4,4,0,0,1-3.76-3l-30.29-122a4,4,0,0,0-7.46-.71L72,714.51a4,4,0,0,1-4.61,2.18l-16-4.16a4,4,0,0,1-2.89-4.66c5.25-24.78,36.7-166.7,76.29-206A3.92,3.92,0,0,1,127.36,500.78Z"/></clipPath><clipPath id="clip-path-74" transform="translate(3.96 -48.64)"><path class="cls-1" d="M204.21,524.27a10.92,10.92,0,0,1-6.71-5.87c-.15-.32-.28-.65-.4-1L143,504.14a8.47,8.47,0,0,1-6.42-7.86l1.79-59.14a9.63,9.63,0,0,1,19.25.51l-1.09,48.72,45.06,18.26a10.67,10.67,0,0,1,1.28-.71h0a10.93,10.93,0,1,1,1.36,20.35Z"/></clipPath><clipPath id="clip-path-76" transform="translate(3.96 -48.64)"><path class="cls-1" d="M132.58,466.61a4.78,4.78,0,0,1-1.25-3.78L134,439a13.27,13.27,0,0,1,26.53-1l4.37,23.67a4.8,4.8,0,0,1-4.53,5.65l-24.14.85A4.76,4.76,0,0,1,132.58,466.61Z"/></clipPath><clipPath id="clip-path-78" transform="translate(3.96 -48.64)"><path class="cls-1" d="M102.06,418.27l2.55-8.23,1.74,9.24,14.31-.38-.07-9.11,5.44,9,13-2.87c-2.77-3.69-5.57-7.44-7.34-11.79s-2.42-9.45-.76-13.85c4.09-10.89,19.6-7.84,28.09-7.93,2.47,0,5.27-.21,6.89-2.23,1.22-1.52,1.42-3.7,1.36-5.72-.32-10.38-6.55-20.28-15.36-24.4a23.74,23.74,0,0,0-13.8-1.87,24.79,24.79,0,0,0-7,2.22c-2,1-4.07,3.27-6.2,3.21-1.79-.05-4.17-1.92-6.12-2.24a18.9,18.9,0,0,0-7.07.25,22.16,22.16,0,0,0-12,7.17c-6.63,7.7-8.6,19-7.44,29.51s5.07,20.28,8.93,29.94"/></clipPath><clipPath id="clip-path-80" transform="translate(3.96 -48.64)"><path class="cls-1" d="M798,746.08H2a1,1,0,0,1,0-2H798a1,1,0,0,1,0,2Z"/></clipPath><clipPath id="clip-path-82" transform="translate(3.96 -48.64)"><path class="cls-1" d="M784.58,733.78a19.16,19.16,0,0,0,6.33-9.53c.8-3.79-.81-8.23-4.42-9.7-4-1.57-8.39,1.25-11.67,4.09s-7.05,6.08-11.35,5.47a17.27,17.27,0,0,0,5.29-16.17,6.66,6.66,0,0,0-1.48-3.3c-2.25-2.4-6.33-1.36-9,.53-8.57,6-11,17.67-11,28.15-.87-3.79-.14-7.73-.16-11.54s-1.09-8.24-4.35-10.25a13.27,13.27,0,0,0-6.59-1.56c-3.86-.13-8.14.24-10.78,3.06-3.3,3.5-2.42,9.38.43,13.19s7.17,6.26,11.14,8.93a24.5,24.5,0,0,1,8,7.59,6.86,6.86,0,0,1,.6,1.36h24.14A67.29,67.29,0,0,0,784.58,733.78Z"/></clipPath><clipPath id="clip-path-85" transform="translate(3.96 -48.64)"><path class="cls-1" d="M434.3,196.31l1.05-.85a7,7,0,0,1-2.06-5,6.41,6.41,0,0,1,1.56-3.4,12.73,12.73,0,0,0,1.75-3,12,12,0,0,0-1.56-9.91l-1.3.66a10.79,10.79,0,0,1,1.61,8.79,10.4,10.4,0,0,1-1.55,2.65A7.26,7.26,0,0,0,432,190.3a8.41,8.41,0,0,0,2.41,6Z"/></clipPath><clipPath id="clip-path-87" transform="translate(3.96 -48.64)"><path class="cls-1" d="M444.67,196.31l1.05-.85a7.06,7.06,0,0,1-2.05-5,6.34,6.34,0,0,1,1.56-3.4,12.73,12.73,0,0,0,1.75-3,12,12,0,0,0-1.57-9.91l-1.29.66a8.81,8.81,0,0,1,.06,11.44,7.13,7.13,0,0,0-1.83,4.07,8.37,8.37,0,0,0,2.41,6Z"/></clipPath><clipPath id="clip-path-89" transform="translate(3.96 -48.64)"><path class="cls-1" d="M439.65,196.31l1.08-.82a6.7,6.7,0,0,1-2-4.86,6.12,6.12,0,0,1,1.48-3.32,12.4,12.4,0,0,0,1.7-2.89,11.52,11.52,0,0,0-1.52-9.58l-1.26.62a10.42,10.42,0,0,1,1.44,8.53,9.79,9.79,0,0,1-1.52,2.56,7.15,7.15,0,0,0-1.78,3.93A8.05,8.05,0,0,0,439.65,196.31Z"/></clipPath><clipPath id="clip-path-91" transform="translate(3.96 -48.64)"><polygon class="cls-1" points="438.35 172.9 437.92 176.87 441.72 174.8 438.35 172.9"/></clipPath><clipPath id="clip-path-93" transform="translate(3.96 -48.64)"><polygon class="cls-1" points="433.45 172.89 433.01 176.86 436.82 174.79 433.45 172.89"/></clipPath><clipPath id="clip-path-95" transform="translate(3.96 -48.64)"><polygon class="cls-1" points="443.82 172.89 443.39 176.86 447.19 174.79 443.82 172.89"/></clipPath><clipPath id="clip-path-98" transform="translate(3.96 -48.64)"><path class="cls-1" d="M552.19,323.19c-1.67.17-1.82,1.55-3.12.74s0-4.37,2.17-4.06,3.46,2.39,3.25,3.2-.63,0-2.28.12Zm1.69,3.82c-.37,1.81.76,2.39-.35,3.53s-3.73-1.31-2.79-3.53,3.16-2.94,3.75-2.39S554.27,325.27,553.88,327Zm3.75-.65c1.41,1,2.28,0,2.91,1.46s-2.3,3.53-3.88,1.84-1.54-4.25-1-4.78.5.43,1.93,1.39Zm.61-4.15c1.26-1.22.65-2.39,2.17-2.65s2.32,3.53.39,4.78-4.1.31-4.34-.46.52-.38,1.78-1.6Zm-2.86,2.39a.86.86,0,1,1,.78-.86A.83.83,0,0,1,555.38,324.6Zm-.5-4.37c-.65-1.72-1.89-1.46-1.58-3.08s3.7-1.38,4.12,1-1,4.47-1.74,4.47S555.53,321.93,554.88,320.23Z"/></clipPath><clipPath id="clip-path-100" transform="translate(3.96 -48.64)"><path class="cls-1" d="M541.54,583c-.61.6-3.77,4,0,7.22a8,8,0,0,1,1.35,1.44l.74-.18A28.6,28.6,0,0,1,548,591c-4.48-4-.64-8.16.15-8.94l-1.7-1.67h4.3v4.23L549.05,583c-.6.59-3.77,4,0,7.21a6.83,6.83,0,0,1,.83.78,31.43,31.43,0,0,1,5.12.54l1.26.26c-.19-.19-.38-.39-.6-.58-4.86-4-.91-8.34-.1-9.14l-1.69-1.67h4.29v4.23L556.52,583c-.62.59-3.76,4,0,7.21a6.22,6.22,0,0,1,1.74,2.11c.51.15,1,.32,1.5.5l6.46-14.29a46.43,46.43,0,0,0-7.93-2.3,48.73,48.73,0,0,0-9-.91,48.24,48.24,0,0,0-9.06.91,46,46,0,0,0-7.89,2.3l6.51,14.29c.87-.3,1.76-.58,2.66-.83a6.3,6.3,0,0,0-.77-.78c-4.86-4-.91-8.34,0-9.14l-1.7-1.67h4.11v4.23L541.48,583Zm7.74-9.27a48.76,48.76,0,0,1,9.41,1,47,47,0,0,1,8.85,2.67.76.76,0,0,1,.43,1l-7.15,15.69a.78.78,0,0,1-1,.38l-1.11-.4c.09,3.07-3.11,5.56-3.11,5.56a.7.7,0,0,1-1-.09.66.66,0,0,1,.1-.93s3-2.39,2.5-5c-.83-.24-1.66-.43-2.52-.6a27.92,27.92,0,0,0-3.77-.46c1.55,3.71-2.77,7.1-2.78,7.12a.7.7,0,0,1-.95-.09A.68.68,0,0,1,547,599a.64.64,0,0,1,.26-.44s3.86-3,2-6.1a28.83,28.83,0,0,0-5.41.52h-.3c1,3.5-3,6.58-3,6.6a.69.69,0,0,1-.72.19.68.68,0,0,1-.47-.56.69.69,0,0,1,.34-.65s3.18-2.52,2.45-5.27a28.11,28.11,0,0,0-3.51,1.12.79.79,0,0,1-1-.41l-7.25-15.63a.75.75,0,0,1,.39-1,48,48,0,0,1,9-2.69A48.78,48.78,0,0,1,549.28,573.74Z"/></clipPath><clipPath id="clip-path-102" transform="translate(3.96 -48.64)"><rect class="cls-1" x="525.06" y="568.73" width="48.63" height="36.72"/></clipPath><clipPath id="clip-path-103" transform="translate(3.96 -48.64)"><rect class="cls-1" x="530.02" y="573.69" width="38.71" height="26.8"/></clipPath><clipPath id="clip-path-104" transform="translate(3.96 -48.64)"><path class="cls-2" d="M538.71,578.84l-1.15,9.37,4,3.74a3,3,0,0,1,.8,2q0,1-3.18,3.87l-1,1.82,3,.94,4.53-2.91L543.58,593a5.9,5.9,0,0,0-.68-1.34c-.2-.23,1.14-.76,4-1.57l3.46-2.49h5.39l5.31-2,.19-4-1.63-2.85Z"/></clipPath><clipPath id="clip-path-106" transform="translate(3.96 -48.64)"><rect class="cls-1" x="545.72" y="586.97" width="27.76" height="18.11" rx="1.79"/></clipPath><clipPath id="clip-path-108" transform="translate(3.96 -48.64)"><path class="cls-1" d="M557.41,599.68c-.64.66-4.06,4.45,0,7.93.23.2.43.41.63.61h5.85c-4.29-4.29-.36-8.72.47-9.57l-1.81-1.84h4.58v4.62l-1.81-1.84c-.63.66-4.06,4.45,0,7.93.23.2.43.4.63.61h5.85c-4.29-4.29-.36-8.73.45-9.57l-1.81-1.84H575v4.71l-1.81-1.84c-.63.66-4.05,4.45,0,7.93l.64.61h5a2,2,0,0,0,1.45-.63,2.11,2.11,0,0,0,.61-1.49V591.75a2.08,2.08,0,0,0-1.92-2.1H550.69a2.08,2.08,0,0,0-2.08,2.1V606.1a2.11,2.11,0,0,0,2.08,2.12H556c-4.3-4.29-.37-8.72.47-9.57l-1.81-1.84h4.54v4.62l-1.81-1.84Zm-6.72-11.5H579a3.56,3.56,0,0,1,3.5,3.57V606.1a3.52,3.52,0,0,1-1,2.52,3.44,3.44,0,0,1-2.47,1h-3.87c2.28,4.27-2.72,8.32-2.81,8.32a.71.71,0,0,1-.7.12.72.72,0,0,1-.45-.56.7.7,0,0,1,.25-.68s4.54-3.68,1.81-7.25h-6.07c2.28,4.32-2.71,8.37-2.73,8.37a.73.73,0,0,1-.71.12.73.73,0,0,1-.2-1.24s4.55-3.68,1.81-7.25h-6.14c2.27,4.32-2.71,8.37-2.73,8.37a.72.72,0,0,1-.7.12.72.72,0,0,1-.2-1.24s4.54-3.68,1.81-7.25h-6.63a3.56,3.56,0,0,1-3.51-3.57v-14.3A3.55,3.55,0,0,1,550.69,588.18Z"/></clipPath><clipPath id="clip-path-110" transform="translate(3.96 -48.64)"><rect class="cls-1" x="541.93" y="582.63" width="45.66" height="42.68"/></clipPath><clipPath id="clip-path-111" transform="translate(3.96 -48.64)"><rect class="cls-1" x="546.9" y="587.59" width="35.73" height="30.77"/></clipPath><clipPath id="clip-path-112" transform="translate(3.96 -48.64)"><rect class="cls-1" x="550.54" y="593.01" width="27.76" height="14.49"/></clipPath><clipPath id="clip-path-113" transform="translate(3.96 -48.64)"><rect class="cls-1" x="550.54" y="609.91" width="27.76" height="8.45"/></clipPath><clipPath id="clip-path-114" transform="translate(3.96 -48.64)"><path class="cls-2" d="M555.33,607.49a5.66,5.66,0,0,0,.74.83,8.8,8.8,0,0,1,.73.7,4.27,4.27,0,0,1,.37.41c.09.11.21.27.36.49h1.76a6.36,6.36,0,0,0-.37-.7,9.53,9.53,0,0,0-1-1.11,2.09,2.09,0,0,0-.31-.29l-.37-.33Z"/></clipPath><clipPath id="clip-path-116" transform="translate(3.96 -48.64)"><path class="cls-2" d="M563.82,607.49a8.21,8.21,0,0,0,1,1.21,9.52,9.52,0,0,1,.7.76l.29.45h1.59a5.09,5.09,0,0,0-.63-1.11l-.52-.65-.62-.66Z"/></clipPath><clipPath id="clip-path-118" transform="translate(3.96 -48.64)"><path class="cls-2" d="M571.07,607.49a3.81,3.81,0,0,0,.35.47c.22.26.52.55.76.83a8.26,8.26,0,0,1,.86,1.12h1.65a5.21,5.21,0,0,0-.29-.56,5.71,5.71,0,0,0-.46-.65c-.26-.33-.63-.73-1.09-1.21Z"/></clipPath></defs><g class="cls-3"><g class="cls-4"><rect class="cls-5" x="320.59" width="354.15" height="700.27"/></g></g><g class="cls-6"><g class="cls-4"><rect class="cls-7" x="337.19" y="15.64" width="320.96" height="668.98"/></g></g><g class="cls-8"><g class="cls-4"><rect class="cls-9" x="403.34" y="385.4" width="56.98" height="56.32"/></g></g><g class="cls-10"><g class="cls-4"><rect class="cls-9" x="407.77" y="402.89" width="10.49" height="10.65"/></g></g><g class="cls-11"><g class="cls-4"><rect class="cls-9" x="407.39" y="404" width="10.52" height="11.15"/></g></g><g class="cls-12"><g class="cls-4"><rect class="cls-9" x="424.29" y="427.52" width="10.79" height="10.48"/></g></g><g class="cls-13"><g class="cls-4"><rect class="cls-9" x="425.72" y="427.64" width="11.88" height="10.47"/></g></g><g class="cls-14"><g class="cls-4"><rect class="cls-9" x="445.58" y="403.34" width="10.65" height="11.21"/></g></g><g class="cls-15"><g class="cls-4"><rect class="cls-9" x="424.73" y="406.5" width="14.4" height="14.24"/></g></g><g class="cls-16"><rect class="cls-7" x="418.22" y="381.13" width="28.98" height="28.25"/></g><g class="cls-17"><g class="cls-4"><rect class="cls-18" x="422.16" y="384.22" width="13.06" height="21.39"/></g></g><g class="cls-19"><g class="cls-4"><rect class="cls-18" x="430.19" y="384.22" width="13.06" height="21.39"/></g></g><g class="cls-20"><g class="cls-4"><rect class="cls-18" x="426.18" y="384.58" width="13.06" height="21.02"/></g></g><g class="cls-21"><g class="cls-4"><rect class="cls-18" x="422.65" y="432.13" width="12.45" height="11.92" transform="translate(-59.29 23.84) rotate(-9)"/></g></g><g class="cls-22"><g class="cls-4"><rect class="cls-18" x="418.63" y="432.12" width="12.45" height="11.92" transform="translate(-59.34 23.21) rotate(-9)"/></g></g><g class="cls-23"><g class="cls-4"><rect class="cls-18" x="426.67" y="432.12" width="12.45" height="11.92" transform="translate(-59.24 24.47) rotate(-9)"/></g></g><g class="cls-24"><g class="cls-4"><rect class="cls-25" x="549.56" y="582.3" width="219.49" height="11.99"/></g></g><g class="cls-26"><g class="cls-4"><rect class="cls-27" x="741.48" y="569.4" width="37.72" height="37.72"/></g></g><g class="cls-28"><g class="cls-4"><rect class="cls-25" x="542.61" y="316.3" width="221.48" height="11.99"/></g></g><g class="cls-29"><g class="cls-4"><rect class="cls-27" x="741.48" y="304.39" width="37.72" height="37.72"/></g></g><g class="cls-30"><g class="cls-4"><rect class="cls-25" x="215.65" y="180.33" width="221.48" height="11.99"/></g></g><g class="cls-31"><g class="cls-4"><rect class="cls-27" x="200.54" y="168.42" width="37.72" height="37.72"/></g></g><g class="cls-32"><g class="cls-4"><rect class="cls-25" x="215.65" y="449.3" width="221.48" height="11.99"/></g></g><g class="cls-33"><g class="cls-4"><rect class="cls-27" x="200.54" y="437.39" width="37.72" height="37.72"/></g></g><g class="cls-34"><g class="cls-4"><rect class="cls-25" x="511.07" y="495.04" width="99.25" height="99.25"/></g></g><g class="cls-35"><g class="cls-4"><rect class="cls-25" x="382.04" y="362.04" width="99.25" height="99.25"/></g></g><g class="cls-36"><g class="cls-4"><rect class="cls-25" x="502.13" y="229.04" width="99.25" height="99.25"/></g></g><g class="cls-37"><g class="cls-4"><rect class="cls-25" x="383.03" y="92.98" width="99.25" height="99.25"/></g></g><g class="cls-38"><g class="cls-4"><rect class="cls-39" x="93.16" y="374.39" width="81.69" height="122.7"/></g></g><g class="cls-40"><g class="cls-4"><rect class="cls-27" x="96.51" y="377.95" width="46.89" height="54.93"/></g></g><g class="cls-41"><g class="cls-4"><rect class="cls-39" x="169.63" y="631.91" width="27.88" height="56.86"/></g></g><g class="cls-42"><g class="cls-4"><rect class="cls-43" x="166.53" y="674.87" width="49.16" height="25.69"/></g></g><g class="cls-44"><g class="cls-4"><rect class="cls-39" x="50.64" y="624.77" width="39" height="58.41"/></g></g><g class="cls-45"><g class="cls-4"><rect class="cls-43" x="44.7" y="665.6" width="48.53" height="34.96"/></g></g><g class="cls-46"><g class="cls-4"><rect class="cls-39" x="111.61" y="308.1" width="58.68" height="58.68"/></g></g><g class="cls-47"><g class="cls-4"><rect class="cls-27" x="105.43" y="365.91" width="79.64" height="97.05"/></g></g><g class="cls-48"><g class="cls-4"><rect class="cls-43" x="47.42" y="445.15" width="152.28" height="228"/></g></g><g class="cls-49"><g class="cls-4"><rect class="cls-39" x="135.56" y="374.21" width="91.74" height="106.88"/></g></g><g class="cls-50"><g class="cls-4"><rect class="cls-27" x="130.3" y="371.63" width="43.62" height="52.83"/></g></g><g class="cls-51"><g class="cls-4"><rect class="cls-43" x="90.9" y="294.2" width="85.26" height="81.4"/></g></g><g class="cls-52"><g class="cls-4"><rect class="cls-5" y="690.49" width="807.93" height="11.91"/></g></g><g class="cls-53"><g class="cls-4"><rect class="cls-54" x="722.25" y="649.64" width="77.78" height="50.78"/></g></g><g class="cls-4"><path class="cls-55" d="M413.58,188.53l7.12,22.57a5.17,5.17,0,0,0,4.92,3.6h19.91a3.44,3.44,0,0,0,3-1.83q4-7.51-.87-9.7a14.36,14.36,0,0,0-7.15-.86,57.09,57.09,0,0,0-8.57,1.83c-.83.17-1.58.29-2.24.36h0a.86.86,0,0,1-.85-1.27q1.56-2.79-2.85-9c-5.7-8.08-6.69-9.09-8-9.67a3.27,3.27,0,0,0-4.3,1.71A3.2,3.2,0,0,0,413.58,188.53Z" transform="translate(3.96 -48.64)"/><path class="cls-55" d="M413.69,180.79a5.41,5.41,0,0,0-4.58-9.8c-2.66,1.24-2.05,3.63-.78,6.33S411,182,413.69,180.79Z" transform="translate(3.96 -48.64)"/></g><g class="cls-56"><g class="cls-4"><rect class="cls-27" x="430.97" y="120.53" width="15.01" height="32.1"/></g></g><g class="cls-57"><g class="cls-4"><rect class="cls-27" x="441.35" y="120.53" width="15.01" height="32.1"/></g></g><g class="cls-58"><g class="cls-4"><rect class="cls-27" x="436.27" y="121.23" width="15.01" height="31.4"/></g></g><g class="cls-59"><g class="cls-4"><rect class="cls-27" x="432.63" y="167.76" width="14.01" height="13.78" transform="translate(-17.95 22.28) rotate(-9)"/></g></g><g class="cls-60"><g class="cls-4"><rect class="cls-27" x="427.72" y="167.75" width="14.01" height="13.78" transform="translate(-18 21.51) rotate(-9)"/></g></g><g class="cls-61"><g class="cls-4"><rect class="cls-27" x="438.1" y="167.75" width="14.01" height="13.78" transform="translate(-17.88 23.14) rotate(-9)"/></g></g><g class="cls-4"><path class="cls-62" d="M532.48,324.65l7,23.32a5.17,5.17,0,0,0,4.94,3.68h19.14a3.44,3.44,0,0,0,3.07-1.9q3.86-7.67-.86-9.89a13.37,13.37,0,0,0-7-.88,52,52,0,0,0-8.34,1.88c-.81.16-1.53.28-2.18.36h0a.86.86,0,0,1-1-.75.94.94,0,0,1,.1-.52q1.57-2.83-2.75-9.25c-5.56-8.25-6.52-9.29-7.83-9.88a3.2,3.2,0,0,0-4.38,3.83Z" transform="translate(3.96 -48.64)"/><path class="cls-55" d="M532.69,317a5.53,5.53,0,0,0,2.45-7.28,5.22,5.22,0,0,0-7-2.74c-2.6,1.25-2,3.69-.74,6.46S530.09,318.24,532.69,317Z" transform="translate(3.96 -48.64)"/></g><g class="cls-63"><g class="cls-4"><rect class="cls-27" x="547.55" y="262.51" width="23.31" height="24.65"/></g></g><g class="cls-64"><g class="cls-4"><g class="cls-65"><g class="cls-66"><g class="cls-67"><rect class="cls-9" x="529.38" y="520.14" width="47.57" height="36"/></g><g class="cls-68"><g class="cls-67"><rect class="cls-18" x="536.56" y="525.24" width="33.63" height="31.67"/></g></g></g></g></g></g><g class="cls-69"><g class="cls-4"><rect class="cls-7" x="544.72" y="533.37" width="37.69" height="28.03"/></g></g><g class="cls-70"><g class="cls-4"><g class="cls-65"><g class="cls-71"><g class="cls-72"><rect class="cls-9" x="546.18" y="534.58" width="45.2" height="39.9"/></g><g class="cls-73"><rect class="cls-18" x="549.54" y="539.4" width="37.69" height="24.41"/></g><g class="cls-74"><rect class="cls-18" x="549.54" y="556.3" width="37.69" height="24.41"/></g><g class="cls-75"><g class="cls-72"><rect class="cls-18" x="554.33" y="553.88" width="13.89" height="12.35"/></g></g></g></g></g></g><g class="cls-76"><g class="cls-4"><rect class="cls-18" x="562.82" y="553.89" width="13.55" height="12.34"/></g></g><g class="cls-77"><g class="cls-4"><rect class="cls-18" x="570.07" y="553.89" width="13.55" height="12.34"/></g></g></svg>