<svg id="eb1b09ad-1fe0-40ca-8096-34696e14e30a" xmlns="http://www.w3.org/2000/svg" viewBox="0 0 798 574.12"><defs><style>.cls-1{fill:#3f3d56;}.cls-2{fill:#f2f2f2;}.cls-3,.cls-7{fill:#407bff;}.cls-4{fill:#ff6584;}.cls-5{fill:#e6e6e6;}.cls-6{fill:#fff;}.cls-10,.cls-7{isolation:isolate;}.cls-7{opacity:0.2;}.cls-8{fill:#2f2e41;}.cls-9{fill:#ffb9b9;}.cls-10{opacity:0.1;}</style></defs><path class="cls-1" d="M799,687.06q-61.68-9-118.63-15.58l15-24.29c-5.06-1.5-27.3,12.35-27.3,12.35l19.71-70.63c-25.46,2.45-38.41,74.61-38.41,74.61L620.94,639l13.77,27.51c-116.21-12-216.58-16.7-301-17.25l12.85-20.79c-5.07-1.5-27.31,12.35-27.31,12.35L339,570.16c-25.45,2.45-38.41,74.61-38.41,74.61l-28.43-24.55,14.58,29.14c-70.78.86-128.49,4.64-173,9,13-32.43,57.14-63.12,57.14-63.12-33.71,8.24-51.4,22.22-60.64,35.29-.7-40.11,4-114.46,39.36-196.63,0,0-69.7,126.62-60.82,211.88L89.78,661C30.7,667.76,1,675,1,675Z" transform="translate(-1 -112.94)"/><path class="cls-1" d="M425.32,135.94V647.63a23,23,0,0,1-23,23H194.6a23,23,0,0,1-23-22.92V135.94a23,23,0,0,1,23-23h31.09v4a18.94,18.94,0,0,0,18.93,18.93H350.27a19.13,19.13,0,0,0,13.09-5.25,19,19,0,0,0,5.84-13.68v-4h33.13a23,23,0,0,1,23,23Z" transform="translate(-1 -112.94)"/><circle class="cls-2" cx="228.47" cy="85.26" r="5.53"/><path class="cls-3" d="M363.36,130.61a18.62,18.62,0,0,1-1.87,1.56,98.85,98.85,0,0,0,63.83,47.51v-2.46A96.52,96.52,0,0,1,363.36,130.61Z" transform="translate(-1 -112.94)"/><path class="cls-3" d="M316.14,135.86h-2.59a143.42,143.42,0,0,0,111.77,89.25v-2.45A141,141,0,0,1,316.14,135.86Z" transform="translate(-1 -112.94)"/><path class="cls-3" d="M268.45,135.86H266C286.82,208.28,349.77,262.19,425.32,271v-2.41A186.68,186.68,0,0,1,268.45,135.86Z" transform="translate(-1 -112.94)"/><polygon class="cls-2" points="210.32 126.16 208.88 126.16 208.88 124.73 208.6 124.73 208.6 126.16 207.16 126.16 207.16 126.44 208.6 126.44 208.6 127.88 208.88 127.88 208.88 126.44 210.32 126.44 210.32 126.16"/><polygon class="cls-2" points="307.41 54.33 305.98 54.33 305.98 52.89 305.69 52.89 305.69 54.33 304.26 54.33 304.26 54.61 305.69 54.61 305.69 56.05 305.98 56.05 305.98 54.61 307.41 54.61 307.41 54.33"/><polygon class="cls-2" points="224.53 183 223.09 183 223.09 181.56 222.81 181.56 222.81 183 221.37 183 221.37 183.28 222.81 183.28 222.81 184.72 223.09 184.72 223.09 183.28 224.53 183.28 224.53 183"/><polygon class="cls-2" points="290.84 141.16 289.4 141.16 289.4 139.72 289.12 139.72 289.12 141.16 287.68 141.16 287.68 141.44 289.12 141.44 289.12 142.88 289.4 142.88 289.4 141.44 290.84 141.44 290.84 141.16"/><polygon class="cls-2" points="385.56 167.21 384.13 167.21 384.13 165.77 383.85 165.77 383.85 167.21 382.41 167.21 382.41 167.49 383.85 167.49 383.85 168.93 384.13 168.93 384.13 167.49 385.56 167.49 385.56 167.21"/><circle class="cls-4" cx="368.99" cy="98.68" r="3.16"/><path class="cls-5" d="M256.87,285.66l-1.8.28c.56,3.58,1,7.24,1.33,10.87l1.81-.16C257.88,293,257.43,289.28,256.87,285.66Z" transform="translate(-1 -112.94)"/><path class="cls-5" d="M252,264.08l-1.73.53c1.05,3.47,2,7,2.78,10.58l1.78-.41C254,271.2,253,267.6,252,264.08Z" transform="translate(-1 -112.94)"/><path class="cls-5" d="M244.14,243.38l-1.65.76c1.52,3.31,2.94,6.7,4.22,10.1l1.7-.64C247.11,250.16,245.68,246.72,244.14,243.38Z" transform="translate(-1 -112.94)"/><path class="cls-5" d="M233.56,224,232,225c1.95,3.06,3.82,6.23,5.56,9.42l1.59-.87C237.43,230.28,235.54,227.07,233.56,224Z" transform="translate(-1 -112.94)"/><path class="cls-5" d="M220.41,206.19,219,207.37c2.35,2.76,4.64,5.65,6.8,8.57l1.46-1.08C225.11,211.91,222.8,209,220.41,206.19Z" transform="translate(-1 -112.94)"/><path class="cls-5" d="M205,190.36l-1.21,1.35c2.71,2.42,5.37,5,7.91,7.57L213,198C210.39,195.38,207.7,192.8,205,190.36Z" transform="translate(-1 -112.94)"/><path class="cls-5" d="M187.49,176.76l-1,1.5c3,2,6,4.19,8.86,6.43l1.12-1.43C193.56,181,190.54,178.82,187.49,176.76Z" transform="translate(-1 -112.94)"/><path class="cls-5" d="M171.6,167.32v2.05c1.89,1,3.76,2,5.59,3.08l.91-1.57Q174.91,169,171.6,167.32Z" transform="translate(-1 -112.94)"/><path class="cls-5" d="M256.46,456.17c.29-1.76.56-3.56.8-5.35l1.8.24c-.24,1.81-.52,3.63-.81,5.41Z" transform="translate(-1 -112.94)"/><path class="cls-5" d="M251.4,477.47l1.73.54c1.09-3.51,2.07-7.1,2.93-10.68l-1.77-.42C253.44,470.45,252.48,474,251.4,477.47Z" transform="translate(-1 -112.94)"/><path class="cls-5" d="M243.47,497.86l1.65.78c1.56-3.33,3-6.75,4.36-10.18l-1.7-.66C246.47,491.19,245,494.58,243.47,497.86Z" transform="translate(-1 -112.94)"/><path class="cls-5" d="M232.8,517l1.53,1c2-3.08,3.93-6.27,5.72-9.48l-1.58-.89C236.7,510.79,234.79,513.94,232.8,517Z" transform="translate(-1 -112.94)"/><path class="cls-5" d="M219.61,534.47l1.37,1.19c2.42-2.78,4.76-5.68,7-8.61L226.51,526C224.32,528.86,222,531.72,219.61,534.47Z" transform="translate(-1 -112.94)"/><path class="cls-5" d="M204.16,550l1.19,1.36c2.78-2.42,5.49-5,8.08-7.57l-1.28-1.29C209.59,545.05,206.9,547.57,204.16,550Z" transform="translate(-1 -112.94)"/><path class="cls-5" d="M186.75,563.23l1,1.52c3.06-2,6.11-4.18,9-6.4l-1.1-1.45C192.79,559.1,189.78,561.23,186.75,563.23Z" transform="translate(-1 -112.94)"/><path class="cls-5" d="M178.3,570.52c-2.19,1.24-4.43,2.44-6.7,3.57v-2c2-1,3.9-2,5.8-3.11Z" transform="translate(-1 -112.94)"/><path class="cls-5" d="M257,308l1.81,0c0,1.84,0,3.68,0,5.48l-1.81,0C257,311.64,257,309.82,257,308Z" transform="translate(-1 -112.94)"/><path class="cls-6" d="M179.58,351.05H365.25a52.1,52.1,0,0,1,52.1,52.1v6.9H231.68a52.1,52.1,0,0,1-52.1-52.1h0v-6.9Z" transform="translate(-1 -112.94)"/><path class="cls-2" d="M302.8,669.88c-.18-.3-4.45-7.43-5.93-22.24-1.36-13.59-.49-36.49,11.39-68.44,22.5-60.52-5.19-109.36-5.47-109.84l1.37-.8c.07.13,7.21,12.58,11.44,32.4a141.42,141.42,0,0,1-5.86,78.79c-22.46,60.42-5.76,89-5.59,89.31Z" transform="translate(-1 -112.94)"/><circle class="cls-3" cx="293" cy="342.6" r="10.26"/><circle class="cls-2" cx="325.37" cy="380.49" r="10.26"/><circle class="cls-3" cx="303.26" cy="405.75" r="10.26"/><circle class="cls-3" cx="330.1" cy="427.07" r="10.26"/><circle class="cls-2" cx="295.37" cy="460.22" r="10.26"/><path class="cls-2" d="M309,670.26S298.74,645,329.53,626.05Z" transform="translate(-1 -112.94)"/><path class="cls-2" d="M296.38,669.8s-4.67-26.86-40.82-26.63Z" transform="translate(-1 -112.94)"/><circle class="cls-7" cx="254.52" cy="267.61" r="63.15"/><circle class="cls-7" cx="254.52" cy="267.61" r="44.47"/><circle class="cls-3" cx="254.52" cy="267.61" r="29.35"/><path class="cls-6" d="M260.86,374.22a5.34,5.34,0,1,0-8.71,4.13l-2,13.76h10.67l-2-13.76A5.33,5.33,0,0,0,260.86,374.22Z" transform="translate(-1 -112.94)"/><path class="cls-8" d="M550.51,155s-17.61-15.79-41.28,14S448.52,213.29,440,224.83c0,0,35.21-14.57,47.35-20.64s11.54-4.86,11.54-4.86-16.39,11.54-19.43,23.07-.61,21.25-6.07,32.78,104.42,7.9,104.42,7.9,10.92-18.82,7.89-38.25S584.5,157.44,550.51,155Z" transform="translate(-1 -112.94)"/><path class="cls-9" d="M517.21,204.67s3.83,26.8-12.58,32.81-10.39,14.22-10.39,14.22l24.61,12,26.25-8.2,8.75-13.12s-14.22-3.29-10.39-13.13,4.92-13.12,4.92-13.12Z" transform="translate(-1 -112.94)"/><path class="cls-10" d="M517.21,204.67s3.83,26.8-12.58,32.81-10.39,14.22-10.39,14.22l24.61,12,26.25-8.2,8.75-13.12s-14.22-3.29-10.39-13.13,4.92-13.12,4.92-13.12Z" transform="translate(-1 -112.94)"/><path class="cls-9" d="M586.12,281.24s-3.83,50.31-2.74,52.5,0,78.2,0,78.2,7.66,41-2.18,43.21-7.66-45.94-7.66-45.94l-9.84-63.44,1.09-62.89Z" transform="translate(-1 -112.94)"/><path class="cls-10" d="M586.12,281.24s-3.83,50.31-2.74,52.5,0,78.2,0,78.2,7.66,41-2.18,43.21-7.66-45.94-7.66-45.94l-9.84-63.44,1.09-62.89Z" transform="translate(-1 -112.94)"/><path class="cls-9" d="M479.47,432.72s-18,68.37-17.5,101.73,7.66,79.84,7.66,79.84,1.09,20.24-.55,22.42,8.21,11.49,8.21,11.49l10.39-6,3.83-4.37V634s-6-18.59-1.1-33.36,7.66-52,2.74-63.44l33.9-100.63Z" transform="translate(-1 -112.94)"/><path class="cls-8" d="M478.38,639.45s-6.56-8.2-10.94-5.47S456,655.31,456,655.31s-24.61,23.51-7.11,24.61,25.16-4.92,27.34-9.3,22.43-15.86,22.43-15.86-2.19-20.78-5.47-21.33-8.21,8.21-8.21,8.21Z" transform="translate(-1 -112.94)"/><path class="cls-9" d="M539.09,437.1v67.81a208.7,208.7,0,0,0,1.64,24.61c1.64,12-9.3,101.73-9.3,101.73l1.09,15.85L546.19,646l1.65-13.67,19.68-60.16s6.57-36.64,3.28-50.31,17-101.18,17-101.18Z" transform="translate(-1 -112.94)"/><path class="cls-8" d="M528.15,643.28l4.05-.88s3.06-6.78,6.89-5.14a41.35,41.35,0,0,1,7.61,4.56l1.68,3.1s3.83,8.2,8.75,13.67,10.39,17.5,2.19,18.59-19.14,1.64-22.42-1.09-1.1-7.11-4.38-8.2-6-4.38-5.47-5.47S528.15,643.28,528.15,643.28Z" transform="translate(-1 -112.94)"/><circle class="cls-9" cx="538.09" cy="86.26" r="24.31"/><path class="cls-3" d="M493.15,241.86l7.22-2.52s-2.85,4.71,12.46,7.44,31.18,3.7,38.29-5.26c0,0,2.73-1.3,6.56,2.53s6,2.73,6,2.73L561,261l-5.47,26.25-7.11,19.69-20.23-4.38L506.27,286.7l-8.2-21.32V245.69Z" transform="translate(-1 -112.94)"/><path class="cls-3" d="M559.87,249.52l5.47-3.83s18.59,3.28,19.68,12L570.8,285.06a31.14,31.14,0,0,1-.54,23.52c-5.47,12.58-4.92,15.31-4.92,15.31l-3.83,16.41-69.46,5.47s-2.73-6.56-3.83-7.66-1.09-4.92,0-4.92,0-1.64-1.09-3.28-1.64-2.19,0-4.38-2.73-21.87-2.73-21.87V282.33l-18.6-24.61s6.56-9.85,9.85-10.94,18.89-5.41,18.89-5.41l3.53,5.2L503,286.16l7.11,24.06L540,305.13l11.63-19.52,7.66-23Z" transform="translate(-1 -112.94)"/><path class="cls-3" d="M580.65,254.44l4.37,3.28s3.83,30.62,2.74,32.81-20.24,4.38-20.78,3.28S580.65,254.44,580.65,254.44Z" transform="translate(-1 -112.94)"/><path class="cls-8" d="M490.41,239.12l5.47,36.1s-4.92,53.59-3.83,64.53l1.1,3.28s-2.19-1.09-2.74,1.1,0,9.29,0,9.29-3.28,3.29-4.37,21.33-14.22,61.26-9.3,62.9,34.45,9.84,50.31,8.2,72.74-20.78,72.19-25.7-27.89-74.38-27.89-74.38-4.92-8.21-4.92-9.3,6.56-5.47,4.92-9.84S561,276.31,561,276.31l6-32.81-8.21-2.19-6,31.72s-23.52,11.49-48.13,1.1l-5.47-37.19Z" transform="translate(-1 -112.94)"/><path class="cls-8" d="M516.72,181.76s40.47,27.89,51.41,15.31S549,173.55,549,173.55l-25.16-2.73Z" transform="translate(-1 -112.94)"/><path class="cls-3" d="M453.84,478.47a21.35,21.35,0,1,0-6.69-8.31l-55.81,46.47-7.44-8.82-3.34,2.24-3.71-4.41,3-2.58-3.71-4.41-4.75,4,2.28,2.72-5.09,4.29-2.28-2.72-7.47,6.29,3.43,4.07L365,515l3.71,4.41-3.39,2.86,6.86,8.15-8.14,6.86,8.29,9.83Zm13.94-31.18a14.12,14.12,0,1,1-15.27,12.86,14.11,14.11,0,0,1,15.27-12.86Z" transform="translate(-1 -112.94)"/><path class="cls-9" d="M462,287.8s3.83,50.31,2.74,52.5,0,78.2,0,78.2-7.66,41,2.19,43.21,7.65-45.94,7.65-45.94l9.85-63.44-1.1-62.89Z" transform="translate(-1 -112.94)"/><path class="cls-3" d="M470.18,256.08l-4.38,1.64s-8.2,34.45-6,34.45,28.43,3.28,28.43,2.19-4.92-27.89-4.92-27.89Z" transform="translate(-1 -112.94)"/></svg>