<svg id="a2004bc7-ef99-430b-b7c9-8e162ba022b9" xmlns="http://www.w3.org/2000/svg" viewBox="0 0 798 668.18"><defs><style>.cls-1{fill:#ff6584;}.cls-2{fill:#3f3d56;}.cls-3{fill:#e6e6e6;}.cls-4{fill:#fff;}.cls-5{fill:#ccc;}.cls-6{fill:#407bff;}.cls-7{fill:#f2f2f2;}</style></defs><circle class="cls-1" cx="224.09" cy="92.25" r="58.93"/><polygon class="cls-2" points="568.22 109.44 497.53 109.44 497.53 45.17 568.22 109.44"/><rect class="cls-3" x="220.86" y="107.33" width="355.61" height="491.3"/><rect class="cls-4" x="256.34" y="141.78" width="41.84" height="88.16"/><rect class="cls-4" x="321.06" y="141.78" width="41.84" height="88.16"/><rect class="cls-4" x="250.83" y="266.73" width="41.84" height="88.16"/><rect class="cls-4" x="321.06" y="266.73" width="41.84" height="88.16"/><rect class="cls-4" x="250.83" y="382.34" width="41.84" height="88.16"/><rect class="cls-4" x="319.48" y="380.77" width="41.84" height="88.16"/><rect class="cls-5" x="380.29" y="510.67" width="41.84" height="88.16"/><rect class="cls-4" x="443.5" y="380.77" width="41.84" height="88.16"/><rect class="cls-4" x="513.72" y="380.77" width="41.84" height="88.16"/><rect class="cls-4" x="445.07" y="265.79" width="41.84" height="88.16"/><rect class="cls-4" x="515.3" y="265.79" width="41.84" height="88.16"/><rect class="cls-4" x="445.07" y="141.78" width="41.84" height="88.16"/><rect class="cls-4" x="515.3" y="141.78" width="41.84" height="88.16"/><rect class="cls-2" x="220.86" y="220.89" width="355.61" height="13.45"/><rect class="cls-2" x="220.86" y="325.48" width="355.61" height="7.47"/><rect class="cls-2" x="220.86" y="301.57" width="355.61" height="7.47"/><rect class="cls-2" x="248.51" y="416.63" width="7.47" height="59.77"/><rect class="cls-2" x="290.34" y="416.63" width="7.47" height="59.77"/><rect class="cls-2" x="332.18" y="416.63" width="7.47" height="59.77"/><rect class="cls-2" x="374.02" y="416.63" width="7.47" height="59.77"/><rect class="cls-2" x="415.85" y="416.63" width="7.47" height="59.77"/><rect class="cls-2" x="457.69" y="416.63" width="7.47" height="59.77"/><rect class="cls-2" x="499.53" y="416.63" width="7.47" height="59.77"/><rect class="cls-2" x="541.37" y="416.63" width="7.47" height="59.77"/><rect class="cls-2" x="249.25" y="303.07" width="7.47" height="59.77"/><rect class="cls-2" x="291.09" y="303.07" width="7.47" height="59.77"/><rect class="cls-2" x="332.93" y="303.07" width="7.47" height="59.77"/><rect class="cls-2" x="374.76" y="303.07" width="7.47" height="59.77"/><rect class="cls-2" x="416.6" y="303.07" width="7.47" height="59.77"/><rect class="cls-2" x="458.44" y="303.07" width="7.47" height="59.77"/><rect class="cls-2" x="500.28" y="303.07" width="7.47" height="59.77"/><rect class="cls-2" x="542.11" y="303.07" width="7.47" height="59.77"/><rect class="cls-2" x="249.25" y="170.09" width="7.47" height="59.77"/><rect class="cls-2" x="291.09" y="170.09" width="7.47" height="59.77"/><rect class="cls-2" x="332.93" y="170.09" width="7.47" height="59.77"/><rect class="cls-2" x="374.76" y="170.09" width="7.47" height="59.77"/><rect class="cls-2" x="416.6" y="170.09" width="7.47" height="59.77"/><rect class="cls-2" x="458.44" y="170.09" width="7.47" height="59.77"/><rect class="cls-2" x="500.28" y="170.09" width="7.47" height="59.77"/><rect class="cls-2" x="542.11" y="170.09" width="7.47" height="59.77"/><rect class="cls-2" x="220.86" y="191" width="355.61" height="7.47"/><rect class="cls-2" x="220.86" y="167.1" width="355.61" height="7.47"/><rect class="cls-2" x="220.86" y="350.88" width="355.61" height="13.45"/><rect class="cls-2" x="204.5" y="101.8" width="388.34" height="20.04"/><polygon class="cls-4" points="298.26 529.74 298.26 510.67 275.38 510.67 275.38 529.74 296.35 529.74 298.26 529.74"/><polygon class="cls-4" points="296.35 544.99 275.38 544.99 275.38 564.05 298.26 564.05 298.26 544.99 296.35 544.99"/><rect class="cls-4" x="313.51" y="510.67" width="22.88" height="19.06"/><rect class="cls-4" x="313.51" y="544.99" width="22.88" height="19.06"/><polygon class="cls-4" points="484.83 529.74 484.83 510.67 461.95 510.67 461.95 529.74 482.92 529.74 484.83 529.74"/><polygon class="cls-4" points="482.92 544.99 461.95 544.99 461.95 564.05 484.83 564.05 484.83 544.99 482.92 544.99"/><rect class="cls-4" x="500.08" y="510.67" width="22.87" height="19.06"/><rect class="cls-4" x="500.08" y="544.99" width="22.87" height="19.06"/><rect class="cls-2" x="220.86" y="464.44" width="355.61" height="13.45"/><rect class="cls-2" x="220.86" y="440.53" width="355.61" height="7.47"/><rect class="cls-2" x="220.86" y="416.63" width="355.61" height="7.47"/><path class="cls-6" d="M329.52,658.14c0-.42,0-.83,0-1.24-.32-11-11.25-14-17.11-8.79a10.15,10.15,0,0,0-13.32,0c-5.88-5.13-16.59-2.36-16.95,8.53,0,.41,0,.83,0,1.24a65.25,65.25,0,0,0,.42,6.85h46.58A63.18,63.18,0,0,0,329.52,658.14Z" transform="translate(-1 -65.91)"/><path class="cls-6" d="M514.64,658.14c0-.42,0-.83,0-1.24-.32-11-11.25-14-17.1-8.79a10.17,10.17,0,0,0-13.33,0c-5.88-5.13-16.59-2.36-16.94,8.53,0,.41,0,.83,0,1.24a60.26,60.26,0,0,0,.42,6.85h46.57Q514.6,661.45,514.64,658.14Z" transform="translate(-1 -65.91)"/><polygon class="cls-3" points="769.08 599.57 761.88 599.57 764.28 458.86 766.68 458.86 769.08 599.57"/><path class="cls-3" d="M776.08,436.18l11.63-18a270.13,270.13,0,0,0-11.93-27.92l-7.52,6.07,6-9.2C768.54,376,764.08,369,764.08,369S740.76,405.7,733,444.61l14.92,23.06-16.52-13.34a109.6,109.6,0,0,0-.91,13.67c0,46.08,15,83.43,33.62,83.43s33.61-37.35,33.61-83.43c0-14.29-3.23-29.23-7.69-43.06Z" transform="translate(-1 -65.91)"/><polygon class="cls-6" points="743.72 402.76 590.04 402.76 590.04 515.91 590.14 515.91 590.14 538.44 612.66 515.91 743.72 515.91 743.72 402.76"/><rect class="cls-3" x="413.04" y="644.42" width="136.34" height="5.39"/><rect class="cls-3" x="660.92" y="644.42" width="137.08" height="5.39"/><rect class="cls-3" x="165.16" y="644.42" width="136.52" height="5.39"/><rect class="cls-2" y="598.71" width="797.44" height="1.5"/><rect class="cls-2" x="625.45" y="622.11" width="16.05" height="2.55"/><path class="cls-6" d="M510.37,688.59l3.31.77,125.89.07,1.14-2.64a26.63,26.63,0,0,0,1.95-14.4c-.54-3.64-1.9-7.26-5-8.83l-5.59-37.21-69.65-.13L535.5,648s-12.72-.23-19.62,8.37a20.18,20.18,0,0,0-4.22,11.11l-.27,4.47Z" transform="translate(-1 -65.91)"/><circle class="cls-2" cx="537.02" cy="622.06" r="15.54"/><circle class="cls-5" cx="537.02" cy="622.06" r="8.18"/><circle class="cls-2" cx="613.73" cy="622.1" r="15.54"/><circle class="cls-5" cx="613.73" cy="622.1" r="8.18"/><polygon class="cls-4" points="545.2 579.51 582.81 579.53 587.4 579.53 595.15 579.53 595.15 578.97 595.15 572.15 595.16 564.5 590 564.5 585.41 564.49 577.28 564.49 572.69 564.49 563.3 564.48 545.2 579.51"/><polygon class="cls-4" points="601.26 579.54 621.14 579.55 621.14 575.65 621.14 568.83 621.15 564.51 618.24 564.51 613.65 564.51 601.27 564.5 601.26 579.54"/><rect class="cls-2" x="592.59" y="590.75" width="2.55" height="4.84"/><rect class="cls-2" x="550.55" y="583.85" width="4.84" height="2.55"/><path class="cls-2" d="M554.61,650.87h-.28a5.32,5.32,0,0,1-5.33-5.32h0a5.33,5.33,0,0,1,5.33-5.33h.28v10.65Z" transform="translate(-1 -65.91)"/><path class="cls-2" d="M511.39,671.91a8.23,8.23,0,0,0,4.49-15.58,20.18,20.18,0,0,0-4.22,11.11Z" transform="translate(-1 -65.91)"/><polygon class="cls-7" points="585.41 564.49 595.15 578.97 595.15 572.15 590 564.5 585.41 564.49"/><polygon class="cls-7" points="613.65 564.51 621.14 575.65 621.14 568.83 618.24 564.51 613.65 564.51"/><polygon class="cls-7" points="572.69 564.49 582.81 579.53 587.4 579.53 577.28 564.49 572.69 564.49"/><path class="cls-3" d="M369.59,66.85l-.11.06a7.69,7.69,0,0,1-7.32,0l-.19-.1a7.75,7.75,0,0,0-7.32,0l-.09.06a7.71,7.71,0,0,1-7.33,0l-.2-.11a7.67,7.67,0,0,0-7.24,0c-3.41,1.84-8,5-8,8.51,0,.14,0,.28,0,.42.4,3.68,12.4,4.62,19,2.88a33.26,33.26,0,0,0,14.92,0c6.57,1.77,18.81.76,19.17-3a3,3,0,0,0,0-.42c0-3.55-4.66-6.65-8.09-8.46A7.65,7.65,0,0,0,369.59,66.85Z" transform="translate(-1 -65.91)"/><path class="cls-3" d="M700.1,188.29l-.1.06a7.71,7.71,0,0,1-7.33,0l-.19-.1a7.75,7.75,0,0,0-7.32,0l-.09.06a7.71,7.71,0,0,1-7.33,0l-.2-.11a7.67,7.67,0,0,0-7.24,0c-3.41,1.84-8,5-8,8.51,0,.14,0,.28,0,.42.4,3.68,12.4,4.62,19,2.89a33.59,33.59,0,0,0,14.93,0c6.56,1.76,18.8.75,19.16-3,0-.14,0-.28,0-.42,0-3.55-4.67-6.65-8.1-8.46A7.65,7.65,0,0,0,700.1,188.29Z" transform="translate(-1 -65.91)"/><path class="cls-3" d="M121.32,195.07l-.1.06a7.71,7.71,0,0,1-7.33,0l-.19-.1a7.75,7.75,0,0,0-7.32,0l-.09.06a7.69,7.69,0,0,1-7.32,0l-.21-.11a7.67,7.67,0,0,0-7.24,0c-3.4,1.84-8,5-8,8.51,0,.14,0,.28,0,.42.4,3.68,12.4,4.62,19,2.88a33.3,33.3,0,0,0,14.93,0c6.56,1.77,18.8.76,19.16-3,0-.14,0-.28,0-.42,0-3.55-4.67-6.65-8.1-8.46A7.65,7.65,0,0,0,121.32,195.07Z" transform="translate(-1 -65.91)"/><rect class="cls-2" x="82.88" y="652.65" width="16.05" height="2.55"/><path class="cls-6" d="M216,719.13l-3.31.76L86.81,720l-1.13-2.64a26.49,26.49,0,0,1-2-14.39c.54-3.64,1.9-7.26,5-8.83l5.58-37.21,69.65-.13,26.95,21.74s12.71-.23,19.61,8.36A20.13,20.13,0,0,1,214.72,698l.28,4.47Z" transform="translate(-1 -65.91)"/><circle class="cls-2" cx="187.36" cy="652.6" r="15.54"/><circle class="cls-5" cx="187.36" cy="652.6" r="8.18"/><circle class="cls-2" cx="111.65" cy="718.55" r="15.54" transform="translate(-71.26 -51.41) rotate(-5.65)"/><circle class="cls-5" cx="110.65" cy="652.64" r="8.18"/><polygon class="cls-4" points="179.18 610.05 141.58 610.06 136.99 610.06 129.24 610.07 129.24 609.5 129.23 602.69 129.22 595.04 134.38 595.04 138.97 595.03 147.1 595.02 151.69 595.02 161.08 595.02 179.18 610.05"/><polygon class="cls-4" points="123.12 610.08 103.24 610.09 103.24 606.19 103.24 599.37 103.23 595.05 106.14 595.05 110.73 595.05 123.11 595.04 123.12 610.08"/><rect class="cls-2" x="129.24" y="621.28" width="2.55" height="4.84"/><rect class="cls-2" x="168.99" y="614.38" width="4.84" height="2.55"/><path class="cls-2" d="M171.77,670.76h.28a5.33,5.33,0,0,1,5.33,5.32h0a5.33,5.33,0,0,1-5.33,5.33h-.28V670.76Z" transform="translate(-1 -65.91)"/><path class="cls-2" d="M215,702.45a8.24,8.24,0,0,1-4.5-15.59A20.13,20.13,0,0,1,214.72,698Z" transform="translate(-1 -65.91)"/><polygon class="cls-7" points="138.97 595.03 129.24 609.5 129.23 602.69 134.38 595.04 138.97 595.03"/><polygon class="cls-7" points="110.73 595.05 103.24 606.19 103.24 599.37 106.14 595.05 110.73 595.05"/><polygon class="cls-7" points="151.69 595.02 141.58 610.06 136.99 610.06 147.1 595.02 151.69 595.02"/><polygon class="cls-4" points="661.5 483.45 641.87 458.22 653.28 449.35 662.57 461.29 693.96 428.16 704.46 438.1 661.5 483.45"/><polygon class="cls-6" points="5.69 431.39 159.37 431.39 159.37 544.54 159.27 544.54 159.27 567.07 136.75 544.54 5.69 544.54 5.69 431.39"/><polygon class="cls-4" points="78.17 514.78 58.55 489.55 69.96 480.67 79.25 492.62 110.64 459.48 121.14 469.43 78.17 514.78"/></svg>