<?xml version="1.0" encoding="utf-8"?>
<!-- Generator: Adobe Illustrator 17.0.0, SVG Export Plug-In . SVG Version: 6.00 Build 0)  -->
<!DOCTYPE svg PUBLIC "-//W3C//DTD SVG 1.1//EN" "http://www.w3.org/Graphics/SVG/1.1/DTD/svg11.dtd">
<svg version="1.1" id="图层_1" xmlns="http://www.w3.org/2000/svg" xmlns:xlink="http://www.w3.org/1999/xlink" x="0px" y="0px"
	 width="150px" height="40px" viewBox="0 0 150 40" enable-background="new 0 0 150 40" xml:space="preserve">
<g>
	<path fill="#3E3A39" d="M64.33,31.6c-3.867-0.467-7.133-1.3-9.8-2.5c-2.533,1.133-5.867,2.1-10,2.9c-0.133-0.4-0.367-0.834-0.7-1.3
		c3.667-0.534,6.733-1.234,9.2-2.1c-1.933-1-3.767-2.4-5.5-4.2c-1.533,2.467-3.433,4.567-5.7,6.3c-0.267-0.4-0.567-0.8-0.9-1.2
		c3.133-2.133,5.533-5.233,7.2-9.3h-6.6V19h7.1c0.267-0.8,0.5-1.6,0.7-2.4l1.4,0.2c-0.2,0.8-0.433,1.534-0.7,2.2h15v1.2h-15.5
		c-0.333,0.867-0.7,1.7-1.1,2.5h13.6v1.4c-1.733,1.734-3.7,3.2-5.9,4.4c2.467,0.8,5.433,1.4,8.9,1.8c-0.133,0.2-0.333,0.533-0.6,1
		C64.363,31.433,64.33,31.533,64.33,31.6z M42.23,14.6h15.7c0.267-0.4,0.667-0.966,1.2-1.7c0.667-1,1.167-1.7,1.5-2.1l1.2,0.6
		c-0.333,0.467-0.833,1.134-1.5,2c-0.4,0.534-0.7,0.934-0.9,1.2h4.8v3.2h-1.3v-2h-19.4v2h-1.3V14.6z M64.03,10
		c-4.2,0.2-11.267,0.434-21.2,0.7c-0.067-0.466-0.167-0.9-0.3-1.3c6.8,0,13.833-0.233,21.1-0.7L64.03,10z M45.23,11.7l1-0.6
		c0.667,0.8,1.3,1.667,1.9,2.6l-1.2,0.7c-0.267-0.4-0.633-1-1.1-1.8C45.563,12.2,45.363,11.9,45.23,11.7z M60.33,23.9h-11.5
		c1.667,1.667,3.6,3,5.8,4C56.83,26.834,58.73,25.5,60.33,23.9z M52.13,11.3l1.1-0.5c0.067,0.134,0.2,0.334,0.4,0.6
		c0.533,0.934,0.967,1.7,1.3,2.3l-1.2,0.6C53.33,13.367,52.796,12.367,52.13,11.3z"/>
	<path fill="#3E3A39" d="M78.13,30c3.733,0,8.233,0,13.5,0c-0.2,0.333-0.4,0.766-0.6,1.3c-6.133,0-10.5-0.034-13.1-0.1
		c-2.933,0-5.2-0.9-6.8-2.7c-1.067,0.8-2.067,1.8-3,3l-0.8-1.3c0.8-0.8,1.867-1.766,3.2-2.9v-9.1h-3v-1.3h4.3v10.5
		C73.23,29.133,75.33,30,78.13,30z M72.03,13.7c-0.4-0.6-1.033-1.466-1.9-2.6c-0.667-0.866-1.133-1.5-1.4-1.9l1-0.7
		c1.2,1.4,2.333,2.834,3.4,4.3L72.03,13.7z M82.13,8h1.3v4h6.3v15h-13.9V12h6.3V8z M77.13,13.2v5.7h5v-5.7H77.13z M77.13,20v5.8h5
		V20H77.13z M88.33,13.2h-4.9v5.7h4.9V13.2z M83.43,20v5.8h4.9V20H83.43z"/>
	<path fill="#3E3A39" d="M94.03,16h5v-3.1h-3.9v-1.1h3.9V8.3h1.2v3.5h3.1v1.1h-3.1V16h1.4c1.467-1.6,2.833-3.366,4.1-5.3l1.1,0.7
		c-1.4,2-2.6,3.534-3.6,4.6h2.3v1.1h-3.3c-0.933,1-1.9,1.9-2.9,2.7h5v1.3l-3.2,3V25c0.533-0.133,1.3-0.3,2.3-0.5
		c1.067-0.2,1.833-0.333,2.3-0.4c-0.067,0.4-0.1,0.834-0.1,1.3c-0.467,0.067-1.167,0.2-2.1,0.4c-1.133,0.134-1.933,0.267-2.4,0.4V29
		c0.067,1.6-0.8,2.466-2.6,2.6c-0.867,0-1.667,0-2.4,0c0-0.134-0.033-0.334-0.1-0.6c-0.067-0.334-0.133-0.567-0.2-0.7
		c0.467,0.066,1.233,0.1,2.3,0.1c1.2,0.066,1.767-0.4,1.7-1.4v-2.6c-0.6,0.067-1.467,0.234-2.6,0.5c-1.2,0.2-2.1,0.367-2.7,0.5
		l-0.2-1.3c1.533-0.2,3.367-0.5,5.5-0.9v-1.5l3.1-2.8h-4.9c-0.533,0.467-1.4,1.1-2.6,1.9c-0.4,0.267-0.7,0.467-0.9,0.6
		c0-0.066-0.033-0.133-0.1-0.2c-0.267-0.4-0.5-0.7-0.7-0.9c0.933-0.533,1.767-1.066,2.5-1.6v-0.9h1.2c1.133-0.8,2.133-1.7,3-2.7
		h-6.4V16z M106.03,21.1c-0.4-0.4-0.733-0.733-1-1c1.933-3.2,3.433-7.166,4.5-11.9l1.4,0.2c-0.4,1.534-0.833,3-1.3,4.4h8.1v1.3h-2.4
		c-0.333,5-1.367,8.734-3.1,11.2c1.467,2,3.433,3.7,5.9,5.1c-0.267,0.4-0.567,0.833-0.9,1.3c-2.733-1.867-4.667-3.6-5.8-5.2
		c-1.467,1.867-3.7,3.666-6.7,5.4c-0.2-0.267-0.5-0.667-0.9-1.2c3.2-1.733,5.467-3.533,6.8-5.4c-1.267-1.933-2.2-4.533-2.8-7.8
		C107.363,18.7,106.763,19.9,106.03,21.1z M108.73,15.5c0.6,3.6,1.5,6.434,2.7,8.5c1.4-2.266,2.233-5.566,2.5-9.9h-4.7
		c-0.067,0.134-0.133,0.367-0.2,0.7C108.896,15.067,108.796,15.3,108.73,15.5z"/>
	<path fill="#3E3A39" d="M142.13,18.4c-0.8-0.733-1.6-1.333-2.4-1.8c-4.133,0-8.933,0.067-14.4,0.2c-0.867,0-1.7,0.067-2.5,0.2
		l-0.5-1.4c0.067,0,0.167-0.033,0.3-0.1c0.933-0.266,1.633-0.566,2.1-0.9c1.4-0.8,2.767-1.7,4.1-2.7h-8.4v-1.2h11.8
		c-0.2-0.866-0.433-1.666-0.7-2.4l1.3-0.3c0.333,0.8,0.633,1.7,0.9,2.7h10.5v1.2h-13c-2.467,1.734-4.367,2.967-5.7,3.7
		c3.2,0,7.433-0.066,12.7-0.2c-0.333-0.266-0.867-0.633-1.6-1.1c-0.467-0.4-0.8-0.666-1-0.8l0.9-1c0.467,0.334,1.2,0.867,2.2,1.6
		c2,1.467,3.467,2.534,4.4,3.2L142.13,18.4z M123.73,19h17.3v10.1c0.067,1.6-0.867,2.433-2.8,2.5c-0.8,0-1.833,0-3.1,0
		c0-0.067-0.033-0.134-0.1-0.2c0-0.267-0.1-0.667-0.3-1.2c1.133,0.066,2.2,0.1,3.2,0.1c1.2,0.066,1.767-0.367,1.7-1.3v-1.3h-14.5
		v4.2h-1.4V19z M125.13,20.2v2.6h14.5v-2.6H125.13z M125.13,24v2.5h14.5V24H125.13z"/>
</g>
<polygon fill="#2798C4" points="41.789,18.172 41.789,18.171 41.789,18.172 "/>
<g>
	<polygon fill="#1DBBCC" points="10.045,5.422 21.758,10.788 25.587,2.429 	"/>
	<polygon fill="#EF710B" points="10.044,5.422 9.167,38.271 9.168,38.271 21.757,10.788 	"/>
	<rect x="27.614" y="7.029" fill="#2798C4" width="0" height="12.883"/>
	<polygon fill="#007DCD" points="33.47,16.153 25.587,2.429 21.758,10.788 33.47,16.153 	"/>
	<polygon fill="#E71039" points="9.168,38.271 33.47,16.153 21.757,10.788 	"/>
</g>
</svg>
