<?xml version="1.0" encoding="utf-8"?>
<!-- Generator: Adobe Illustrator 17.1.0, SVG Export Plug-In . SVG Version: 6.00 Build 0)  -->
<!DOCTYPE svg PUBLIC "-//W3C//DTD SVG 1.1//EN" "http://www.w3.org/Graphics/SVG/1.1/DTD/svg11.dtd">
<svg version="1.1" id="Layer_1" xmlns="http://www.w3.org/2000/svg" xmlns:xlink="http://www.w3.org/1999/xlink" x="0px" y="0px"
	 width="40px" height="40px" viewBox="0 0 40 40" enable-background="new 0 0 40 40" xml:space="preserve">
<g>
	<circle cx="20" cy="20" r="19"/>
	<circle fill="#FFFFFF" cx="20" cy="20" r="16"/>
	<g>
		<g>
			<path d="M10.2,10.2c0,0,0.2-0.1,0.7-0.2c0.4-0.1,1.1-0.3,1.9-0.4c0.8-0.1,1.8-0.3,2.9-0.5c1.1-0.2,2.4-0.4,3.9-0.5
				c1.4-0.1,3-0.2,4.7-0.2c0.9,0,1.7,0,2.7,0.2l0.2,0c0.2,0,0.1,0,0.2,0.1c0.3,0.1,0.4,0.2,0.7,0.3c0.3,0.2,0.6,0.4,0.8,0.8
				c0.2,0.4,0.3,0.8,0.3,1.2c0,0.7-0.3,1.1-0.4,1.4c-0.2,0.3-0.3,0.6-0.5,0.8c-0.7,0.9-1.4,1.5-2.1,2.2c-0.7,0.6-1.5,1.2-2.2,1.8
				c-1.5,1.1-3,2.3-4.5,3.4c-1.5,1.1-3.1,2.1-4.5,3.2c-0.7,0.5-1.4,1-2.1,1.6c-0.3,0.3-0.6,0.5-0.8,0.8c-0.1,0.1-0.2,0.2-0.2,0.2
				c0,0,0,0,0-0.1c0-0.1,0.1-0.4-0.1-0.7c-0.1-0.2-0.2-0.3-0.3-0.4c-0.1-0.1-0.2-0.1-0.3-0.2l0.3,0.2c0.2,0.1,0.2,0.1,0.4,0.2
				c0.3,0.1,0.6,0.3,1,0.4c0.7,0.2,1.5,0.3,2.2,0.4c1.5,0.2,3,0.3,4.4,0.3c1.4,0,2.7,0,3.8,0c1.1,0,2.1,0,3,0c0.8,0,1.5,0,1.9,0.1
				c0.4,0,0.7,0,0.7,0l0,0.2c0,0-0.9,0-2.6,0.2c-1.6,0.2-4,0.5-6.8,0.7c-1.4,0.1-2.9,0.1-4.6,0c-0.8-0.1-1.6-0.1-2.5-0.3
				c-0.4-0.1-0.8-0.2-1.3-0.4c-0.2-0.1-0.4-0.2-0.6-0.3l-0.3-0.2c-0.1-0.1-0.2-0.2-0.3-0.3c-0.1-0.3,0-0.6,0.1-0.8
				c0.1-0.2,0.3-0.4,0.4-0.6c0.3-0.3,0.6-0.7,1-1c0.7-0.6,1.4-1.2,2.1-1.7c1.5-1.1,3-2.2,4.5-3.3c1.5-1.1,3.1-2.2,4.5-3.3
				c1.5-1.1,2.9-2.2,4.1-3.5c0.3-0.3,0.5-0.7,0.6-1c0-0.3-0.3-0.5-0.8-0.6c-0.8-0.2-1.6-0.3-2.4-0.3c-1.6-0.1-3.1-0.1-4.5-0.1
				c-2.8,0-5.1,0.1-6.8,0.2c-1.6,0.1-2.6,0.2-2.6,0.2L10.2,10.2z"/>
		</g>
		<g>
			<path d="M19.7,9.9c0,0,0.2,0.5,0.4,1.3c0.1,0.4,0.2,0.9,0.4,1.4c0.1,0.6,0.3,1.2,0.4,1.8c0.1,0.7,0.3,1.4,0.4,2.2
				c0.1,0.8,0.3,1.6,0.3,2.5c0.1,0.9,0.2,1.7,0.2,2.7c0,0.9,0.1,1.8,0.1,2.8c0,0.9,0,1.9-0.1,2.8c-0.1,1-0.2,1.9-0.4,2.8
				c-0.1,0.2-0.1,0.5-0.2,0.7l0,0.2l0,0l0,0l-0.1,0.2l0,0l0,0.1L21,31.7l0,0.1L20.8,32c-0.1,0.1-0.2,0.3-0.3,0.4
				c-0.2,0.3-0.4,0.4-0.7,0.5c-0.5,0.3-0.9,0.3-1.4,0.3c-0.7-0.1-1.2-0.3-1.6-0.6c-0.4-0.3-0.7-0.5-1-0.8c-0.6-0.5-1-1.1-1.3-1.6
				c-0.3-0.5-0.6-1-0.8-1.4c-0.2-0.4-0.3-0.7-0.3-1c0-0.2-0.1-0.4-0.1-0.4l0.2-0.1c0,0,0.1,0.1,0.1,0.3c0.1,0.2,0.3,0.4,0.5,0.8
				c0.5,0.6,1.3,1.5,2.4,2.2c0.6,0.4,1.2,0.8,1.9,0.8c0.4,0,0.7-0.2,0.8-0.5l0.1-0.3l0-0.1l0,0c0,0,0,0,0,0l0,0l0-0.2
				c0-0.2,0.1-0.4,0.1-0.6c0.2-0.8,0.2-1.7,0.2-2.6c0-0.9,0-1.8,0-2.7c0-3.7-0.2-7.3-0.2-10.1c0-1.4-0.1-2.5-0.1-3.3
				c0-0.8,0-1.3,0-1.3L19.7,9.9z"/>
		</g>
	</g>
</g>
</svg>
