<?xml version="1.0" encoding="utf-8"?>
<!-- Generator: Adobe Illustrator 17.1.0, SVG Export Plug-In . SVG Version: 6.00 Build 0)  -->
<!DOCTYPE svg PUBLIC "-//W3C//DTD SVG 1.1//EN" "http://www.w3.org/Graphics/SVG/1.1/DTD/svg11.dtd">
<svg version="1.1" id="Layer_1" xmlns="http://www.w3.org/2000/svg" xmlns:xlink="http://www.w3.org/1999/xlink" x="0px" y="0px"
	 width="40px" height="47px" viewBox="0 0 40 47" style="enable-background:new 0 0 40 47;" xml:space="preserve">
<g>
	<g>
		<g>
			<path style="fill:#38C4E7;" d="M8.6,35.5c0-0.1,0-0.2,0-0.3c0-0.3,0-0.5,0-0.8c0-0.1,0-0.2,0-0.3c0-0.1,0-0.1,0-0.2
				c0-0.7,0.2-1.3,0.4-2c0.3-1,0.6-1.9,1-2.9c0.3-0.8,0.6-1.7,0.8-2.5c0.2-0.8,0.5-1.5,0.7-2.3c0.3-0.8,0.5-1.7,0.7-2.5
				c0.1-0.2,0.1-0.5,0.1-0.7c0-0.1,0-0.1,0-0.2c0-0.1,0-0.1,0-0.2c0-0.3,0-0.6,0-0.9c0-0.4-0.1-0.8-0.2-1.2c-0.2-0.7-0.5-1.4-0.9-2
				c-0.5-0.8-1.2-1.4-2-1.8c-0.7-0.4-1.4-0.6-2.2-0.8c-0.2,0-0.4,0-0.6-0.1c-0.1,0-0.2,0-0.2,0c-0.4,0-0.7,0-1.1,0
				c-0.1,0-0.2,0-0.3,0c-0.1,0-0.1,0-0.2,0c-0.1,0-0.1,0-0.2,0c-0.1,0-0.1,0-0.2,0c-0.1,0-0.1,0-0.2,0c-0.4,0-0.9,0.1-1.3,0.2
				c-0.3,0.1-0.7,0.1-1,0.1c-0.1,0-0.1,0-0.2,0c-0.1,0-0.1,0-0.2,0c-0.1,0-0.1,0-0.2,0c-0.1,0-0.1,0-0.2,0c-0.1-0.1,0-0.3,0-0.5
				c0-0.1,0-0.2,0-0.3c0-0.2,0-0.3,0-0.5c0-0.1,0-0.2,0-0.3c0-0.1,0-0.1,0-0.2c0-0.6,0.2-1.3,0.3-1.9C1.6,10,1.8,9.5,2,8.9
				c0.3-0.7,0.7-1.4,1.2-2.1c0.3-0.5,0.7-0.9,1-1.3C4.5,5.2,4.7,4.9,5,4.7c0.9-0.9,1.9-1.6,3-2.2c2.1-1.1,4.4-1.6,6.8-1.5
				c1.4,0.1,2.8,0.4,4.1,0.9c1,0.4,1.9,0.9,2.7,1.6c0.7,0.6,1.4,1.2,2,1.9c0.7,0.8,1.2,1.6,1.7,2.5c0.6,1.1,1.1,2.3,1.4,3.5
				c0.1,0.4,0.2,0.9,0.2,1.3c0,0.1,0,0.1,0,0.2c0,0.1,0,0.1,0,0.2c0,0.1,0,0.2,0,0.2c0,0.1,0,0.2,0,0.4c0,0.2,0,0.5,0,0.7
				c0,0.1,0,0.3,0,0.4c0,0.1,0,0.2,0,0.3c0,0.1,0,0.1,0,0.2c0,0.1,0,0.1,0,0.2c-0.1,0.9-0.3,1.8-0.7,2.7c-0.4,1-1,1.9-1.6,2.7
				c-0.7,0.9-1.6,1.8-2.4,2.6c-0.8,0.7-1.6,1.4-2.4,2.1c-0.9,0.7-1.8,1.5-2.7,2.2c-0.9,0.7-1.7,1.4-2.6,2.2
				c-0.7,0.6-1.3,1.2-1.9,1.8c-0.8,0.9-1.5,1.8-2.1,2.9c-0.3,0.7-0.6,1.5-0.7,2.3c0,0.2-0.1,0.4-0.1,0.6c0,0.1,0,0.1,0,0.2
				c0,0.1,0,0.2,0,0.2c0,0.1,0,0.3,0,0.4c0,0.1,0,0.2,0,0.3c-0.6-1-0.9-2-1-3.2C8.6,35.7,8.6,35.6,8.6,35.5z"/>
			<path style="fill:#38C4E7;" d="M26.1,43.4c0,0.6,0.4,1.1,1,1.4c0.3,0.1,0.6,0.2,0.9,0.3c0.1,0,0.1,0,0.2,0.1
				c0.2,0.2,0.4,0.5,0.6,0.8c-0.4,0-0.7,0-1,0c-0.4,0-0.7,0-1.1,0c-0.1,0-0.1,0-0.2,0c-0.3,0-0.6,0-0.9,0c-0.3,0-0.6,0-0.8,0
				c-0.1,0-0.1,0-0.2,0c-1.1,0-2.2,0-3.4,0c-0.2,0-0.4,0-0.6,0c-0.1,0-0.3,0-0.4,0c-0.1,0-0.2,0-0.3,0c-0.1,0-0.2,0-0.3,0
				c-0.1,0-0.2,0-0.3,0c-0.1,0-0.1,0-0.2,0c-0.1,0-0.1,0-0.2,0c-0.5,0-0.9-0.1-1.3-0.2c-0.7-0.2-1.4-0.5-2-0.9
				c-0.3-0.2-0.6-0.4-0.9-0.7c-0.4-0.4-0.8-0.9-1.1-1.3c-0.5-0.8-0.8-1.7-1.1-2.6c-0.1-0.3-0.1-0.6-0.1-0.9c0-0.1,0-0.2,0-0.2
				c0-0.2,0-0.5,0-0.7c0-0.1,0-0.2,0-0.3c0.1-0.8,0.3-1.5,0.6-2.2c0.3-0.5,0.6-1,1-1.5c0.2-0.2,0.4-0.5,0.6-0.7c1-1,2.2-1.7,3.6-2
				c0.2,0,0.4-0.1,0.7-0.1c0.1,0,0.2,0,0.3,0c0.2,0,0.4,0,0.6,0c0.1,0,0.2,0,0.3,0c1.4,0.2,2.7,0.6,3.9,1.5c0.8,0.6,1.5,1.3,2,2.2
				c0.4,0.7,0.7,1.5,0.8,2.3c0,0.1,0,0.2,0.1,0.3c0,0.1,0,0.1,0,0.2c0,0.1,0,0.1,0,0.2c0,0.1,0,0.2,0,0.3c0,0.3,0,0.6,0,0.8
				c0,0.1,0,0.2,0,0.3c-0.1,0.8-0.3,1.6-0.5,2.4c-0.1,0.4-0.2,0.7-0.2,1.1C26.1,43.2,26.1,43.3,26.1,43.4z"/>
			<path style="fill:#38C4E7;" d="M33.2,31.2c0,0.1,0,0.1,0,0.2c0,0.1,0,0.2,0,0.3c-0.1,0.4-0.1,0.7-0.3,1c-0.3,0.6-0.7,0.9-1.3,1
				c-0.2,0.1-0.4,0.1-0.7,0.1c-0.3,0-0.5,0-0.8,0c-0.8-0.1-1.5-0.3-2.2-0.6c-0.5-0.3-1-0.7-1.2-1.2c-0.2-0.5-0.4-1-0.5-1.6
				c0-0.2-0.1-0.4-0.1-0.6c0-0.1,0-0.1,0-0.2c0-0.1,0-0.1,0-0.2c0-0.2,0-0.3,0-0.5c0-0.1,0-0.2,0-0.4c0-0.2,0-0.3,0-0.5
				c0-0.1,0-0.2,0-0.2c0-0.1,0-0.2,0-0.2c0-0.1,0-0.1,0-0.2c0-0.1,0-0.1,0-0.2c0-0.4,0.1-0.9,0.2-1.3c0-0.2,0.1-0.3,0.1-0.5
				c0-0.1,0.1,0,0.1,0c0.5,0.2,0.9,0.3,1.4,0.5c1,0.4,2,0.8,3,1.2c0.6,0.2,1,0.6,1.4,1.1c0.5,0.7,0.8,1.4,1,2.3c0,0.1,0,0.2,0,0.3
				C33.2,31,33.2,31.1,33.2,31.2z"/>
			<path style="fill:#FDFDFC;" d="M26.4,46c0.4,0,0.8,0,1.3,0c-0.2,0.1-0.3,0-0.5,0C26.9,46,26.7,46,26.4,46z"/>
			<path style="fill:#FDFDFC;" d="M24.5,46c0.3,0,0.7,0,1,0c-0.2,0.1-0.4,0-0.6,0C24.8,46,24.6,46,24.5,46z"/>
			<path style="fill:#FDFDFC;" d="M12.4,19.7c0,0.3,0,0.6,0,0.9C12.4,20.4,12.4,20,12.4,19.7z"/>
			<path style="fill:#FDFDFC;" d="M30.1,33.9c0.3,0,0.5,0,0.8,0C30.6,34,30.3,34,30.1,33.9z"/>
			<path style="fill:#FDFDFC;" d="M8.6,34.4c0,0.3,0,0.5,0,0.8C8.5,35,8.5,34.7,8.6,34.4z"/>
			<path style="fill:#FDFDFC;" d="M27,14.5c0-0.2,0-0.5,0-0.7C27.1,14,27.1,14.3,27,14.5z"/>
			<path style="fill:#FDFDFC;" d="M20.5,46c0.2,0,0.4,0,0.6,0C20.9,46,20.7,46,20.5,46z"/>
			<path style="fill:#FDFDFC;" d="M1,13c0,0.2,0,0.3,0,0.5C1,13.3,1,13.2,1,13z"/>
			<path style="fill:#FDFDFC;" d="M26,28.1c0,0.2,0,0.3,0,0.5C26,28.5,25.9,28.3,26,28.1z"/>
			<path style="fill:#FDFDFC;" d="M1,13.8c0,0.2,0,0.3,0,0.5C1,14.1,1,14,1,13.8z"/>
			<path style="fill:#FDFDFC;" d="M26,29c0,0.2,0,0.3,0,0.5C25.9,29.3,26,29.2,26,29z"/>
			<path style="fill:#FDFDFC;" d="M9.7,38.6c0-0.1,0-0.3,0-0.4C9.7,38.3,9.7,38.5,9.7,38.6z"/>
			<path style="fill:#FDFDFC;" d="M26.1,43.4c0-0.1,0-0.2,0-0.3C26.1,43.2,26.1,43.3,26.1,43.4z"/>
			<path style="fill:#FDFDFC;" d="M19.8,45.9c0.1,0,0.2,0,0.3,0C20,45.9,19.9,46,19.8,45.9z"/>
			<path style="fill:#FDFDFC;" d="M33.2,31.7c0-0.1,0-0.2,0-0.3C33.2,31.5,33.2,31.6,33.2,31.7z"/>
			<path style="fill:#FDFDFC;" d="M33.2,31.2c0-0.1,0-0.2,0-0.3C33.2,31,33.2,31.1,33.2,31.2z"/>
			<path style="fill:#FDFDFC;" d="M26.8,39.5c0-0.1,0-0.2,0-0.3C26.9,39.3,26.9,39.4,26.8,39.5z"/>
			<path style="fill:#FDFDFC;" d="M19.2,45.9c0.1,0,0.2,0,0.3,0C19.4,45.9,19.3,46,19.2,45.9z"/>
			<path style="fill:#FDFDFC;" d="M20.1,31.5c-0.1,0-0.2,0-0.3,0C19.9,31.5,20,31.4,20.1,31.5z"/>
			<path style="fill:#FDFDFC;" d="M19.2,31.4c-0.1,0-0.2,0-0.3,0C19,31.4,19.1,31.5,19.2,31.4z"/>
			<path style="fill:#FDFDFC;" d="M4.8,13.9c0.1,0,0.2,0,0.3,0C5,13.9,4.9,13.9,4.8,13.9z"/>
			<path style="fill:#FDFDFC;" d="M27,13.4c0-0.1,0-0.2,0-0.2C27,13.2,27,13.3,27,13.4z"/>
			<path style="fill:#FDFDFC;" d="M26,27.6c0,0.1,0,0.2,0,0.2C26,27.8,26,27.7,26,27.6z"/>
			<path style="fill:#FDFDFC;" d="M6.2,13.8c0.1,0,0.2,0,0.2,0C6.3,13.9,6.3,13.9,6.2,13.8z"/>
			<path style="fill:#FDFDFC;" d="M12.4,38.9c0,0.1,0,0.2,0,0.2C12.4,39.1,12.4,39,12.4,38.9z"/>
			<path style="fill:#FDFDFC;" d="M27,15.1c0-0.1,0-0.2,0-0.3C27,15,27,15.1,27,15.1z"/>
			<path style="fill:#FDFDFC;" d="M26.9,38.4c0-0.1,0-0.2,0-0.3C26.9,38.2,26.9,38.3,26.9,38.4z"/>
			<path style="fill:#FDFDFC;" d="M12.4,37.9c0,0.1,0,0.2,0,0.3C12.4,38.1,12.4,38,12.4,37.9z"/>
			<path style="fill:#FDFDFC;" d="M1.1,12.5c0,0.1,0,0.1,0,0.2C1,12.6,1,12.6,1.1,12.5z"/>
			<path style="fill:#FDFDFC;" d="M18.8,45.9c0.1,0,0.1,0,0.2,0C19,45.9,18.9,45.9,18.8,45.9z"/>
			<path style="fill:#FDFDFC;" d="M8.6,35.5c0,0.1,0,0.1,0,0.2C8.6,35.7,8.6,35.6,8.6,35.5z"/>
			<path style="fill:#FDFDFC;" d="M8.6,33.9c0,0.1,0,0.1,0,0.2C8.6,34.1,8.6,34,8.6,33.9z"/>
			<path style="fill:#FDFDFC;" d="M26.8,37.9c0-0.1,0-0.1,0-0.2C26.9,37.8,26.8,37.9,26.8,37.9z"/>
			<path style="fill:#FDFDFC;" d="M9.7,37.9c0-0.1,0-0.1,0-0.2C9.7,37.8,9.7,37.9,9.7,37.9z"/>
			<path style="fill:#FDFDFC;" d="M1.2,14.3c0.1,0,0.1,0,0.2,0C1.4,14.3,1.3,14.3,1.2,14.3z"/>
			<path style="fill:#FDFDFC;" d="M1.6,14.3c0.1,0,0.1,0,0.2,0C1.7,14.3,1.7,14.2,1.6,14.3z"/>
			<path style="fill:#FDFDFC;" d="M4.1,13.9c0.1,0,0.1,0,0.2,0C4.2,14,4.2,13.9,4.1,13.9z"/>
			<path style="fill:#FDFDFC;" d="M27,15.5c0-0.1,0-0.1,0-0.2C27,15.4,27,15.4,27,15.5z"/>
			<path style="fill:#FDFDFC;" d="M4.4,13.9c0.1,0,0.1,0,0.2,0C4.6,13.9,4.5,13.9,4.4,13.9z"/>
			<path style="fill:#FDFDFC;" d="M12.4,20.9c0,0.1,0,0.1,0,0.2C12.3,21,12.3,20.9,12.4,20.9z"/>
			<path style="fill:#FDFDFC;" d="M27,13c0-0.1,0-0.1,0-0.2C27,12.8,27,12.9,27,13z"/>
			<path style="fill:#FDFDFC;" d="M26.1,27.3c0,0.1,0,0.1,0,0.2C26,27.4,26,27.4,26.1,27.3z"/>
			<path style="fill:#FDFDFC;" d="M26,29.7c0,0.1,0,0.1,0,0.2C26,29.8,26,29.7,26,29.7z"/>
			<path style="fill:#FFFFFF;" d="M30.8,27.9c0.3,0.4,0.5,0.8,0.8,1.2c0.3,0.5,0.3,0.8-0.1,1.2c-0.5,0.5-0.6,0.5-1.2,0.1
				c-0.2-0.1-0.3-0.2-0.4-0.4c-0.2-0.3-0.3-0.5,0-0.9c0.1-0.2,0.3-0.4,0.4-0.6C30.4,28.3,30.6,28.1,30.8,27.9z"/>
		</g>
	</g>
</g>
<g>
</g>
<g>
</g>
<g>
</g>
<g>
</g>
<g>
</g>
<g>
</g>
</svg>
